G04 (created by PCBNEW (2013-07-07 BZR 4022)-stable) date 3/2/2015 1:41:46 AM*
%MOIN*%
G04 Gerber Fmt 3.4, Leading zero omitted, Abs format*
%FSLAX34Y34*%
G01*
G70*
G90*
G04 APERTURE LIST*
%ADD10C,0.006*%
%ADD11R,0.026X0.01*%
%ADD12R,0.088X0.088*%
%ADD13R,0.053X0.038*%
%ADD14R,0.0374X0.0393*%
%ADD15R,0.0846X0.0393*%
%ADD16R,0.024X0.021*%
%ADD17R,0.024X0.014*%
%ADD18R,0.021X0.024*%
%ADD19R,0.014X0.024*%
%ADD20R,0.013748X0.024*%
%ADD21R,0.033X0.022*%
%ADD22R,0.0846142X0.0767402*%
%ADD23R,0.022X0.033*%
%ADD24R,0.0452X0.0689*%
%ADD25R,0.022X0.036*%
%ADD26R,0.023X0.043*%
%ADD27R,0.0531X0.0334*%
%ADD28R,0.0531X0.033*%
%ADD29R,0.0334X0.0531*%
%ADD30R,0.033X0.0531*%
%ADD31R,0.098X0.063*%
%ADD32R,0.038X0.053*%
%ADD33R,0.043X0.023*%
%ADD34R,0.0256X0.0334*%
%ADD35R,0.0452X0.0452*%
%ADD36R,0.0295X0.0216*%
%ADD37R,0.0393X0.0374*%
%ADD38R,0.0393X0.0846*%
G04 APERTURE END LIST*
G54D10*
G54D11*
X44336Y-23994D03*
X45164Y-23994D03*
X45164Y-24506D03*
X45164Y-24250D03*
X44336Y-24506D03*
X44336Y-24250D03*
G54D12*
X15825Y-21500D03*
X14025Y-21500D03*
G54D13*
X40850Y-12450D03*
X40850Y-13150D03*
G54D14*
X26020Y-14200D03*
G54D15*
X25400Y-13609D03*
X25400Y-14791D03*
G54D13*
X33000Y-16250D03*
X33000Y-15550D03*
G54D16*
X42375Y-14192D03*
X42375Y-14807D03*
G54D17*
X42375Y-14500D03*
X43124Y-14500D03*
G54D16*
X43124Y-14807D03*
X43124Y-14192D03*
G54D18*
X44307Y-12375D03*
X43692Y-12375D03*
G54D19*
X44000Y-12375D03*
G54D20*
X44000Y-13124D03*
G54D18*
X43692Y-13124D03*
X44307Y-13124D03*
G54D21*
X42000Y-19125D03*
X42000Y-19875D03*
X41000Y-19875D03*
X41000Y-19500D03*
X41000Y-19125D03*
X42000Y-19500D03*
G54D22*
X21750Y-13883D03*
X23750Y-13883D03*
X21750Y-15616D03*
X23750Y-15616D03*
G54D23*
X40875Y-16000D03*
X40125Y-16000D03*
X40125Y-15000D03*
X40500Y-15000D03*
X40875Y-15000D03*
G54D24*
X46120Y-17000D03*
X47380Y-17000D03*
X41405Y-17025D03*
X40145Y-17025D03*
G54D25*
X14375Y-20250D03*
X13625Y-20250D03*
X14000Y-19250D03*
G54D21*
X18500Y-26875D03*
X18500Y-26125D03*
X19500Y-26125D03*
X19500Y-26500D03*
X19500Y-26875D03*
X18500Y-26500D03*
G54D26*
X44750Y-26250D03*
X45350Y-26250D03*
X44150Y-26250D03*
G54D27*
X41250Y-10876D03*
G54D28*
X41250Y-11624D03*
G54D29*
X15474Y-15750D03*
G54D30*
X14726Y-15750D03*
G54D31*
X27750Y-18000D03*
X27750Y-19000D03*
X27750Y-20000D03*
X29750Y-20000D03*
X29750Y-19000D03*
X29750Y-18000D03*
G54D32*
X13650Y-15750D03*
X12950Y-15750D03*
X42800Y-19500D03*
X43500Y-19500D03*
X39400Y-19000D03*
X40100Y-19000D03*
X39400Y-20000D03*
X40100Y-20000D03*
X22000Y-24250D03*
X21300Y-24250D03*
G54D13*
X23000Y-20850D03*
X23000Y-20150D03*
G54D32*
X22000Y-19000D03*
X21300Y-19000D03*
X23150Y-19000D03*
X23850Y-19000D03*
G54D13*
X24750Y-19000D03*
X24750Y-19700D03*
X22000Y-22650D03*
X22000Y-23350D03*
G54D32*
X22000Y-21750D03*
X22700Y-21750D03*
X28400Y-25250D03*
X29100Y-25250D03*
X31500Y-23250D03*
X32200Y-23250D03*
X27500Y-24250D03*
X26800Y-24250D03*
G54D13*
X31500Y-22350D03*
X31500Y-21650D03*
G54D32*
X38250Y-14750D03*
X37550Y-14750D03*
X42650Y-16000D03*
X43350Y-16000D03*
G54D13*
X41750Y-16100D03*
X41750Y-15400D03*
G54D32*
X37350Y-16250D03*
X36650Y-16250D03*
G54D13*
X34000Y-16250D03*
X34000Y-15550D03*
G54D33*
X13600Y-26550D03*
X13600Y-27150D03*
G54D32*
X40100Y-14100D03*
X40800Y-14100D03*
G54D13*
X29000Y-11250D03*
X29000Y-11950D03*
G54D33*
X44300Y-19450D03*
X44300Y-18850D03*
G54D23*
X18125Y-15500D03*
X18875Y-15500D03*
X18875Y-16500D03*
X18500Y-16500D03*
X18125Y-16500D03*
G54D21*
X27000Y-11625D03*
X27000Y-12375D03*
X26000Y-12375D03*
X26000Y-12000D03*
X26000Y-11625D03*
X32000Y-11625D03*
X32000Y-12375D03*
X31000Y-12375D03*
X31000Y-12000D03*
X31000Y-11625D03*
G54D13*
X37500Y-19000D03*
X37500Y-18300D03*
G54D26*
X44750Y-27750D03*
X44150Y-27750D03*
X45350Y-27750D03*
G54D13*
X46500Y-23900D03*
X46500Y-24600D03*
X44250Y-17100D03*
X44250Y-16400D03*
G54D32*
X27500Y-23250D03*
X26800Y-23250D03*
X30600Y-25250D03*
X29900Y-25250D03*
G54D13*
X32500Y-19000D03*
X32500Y-19700D03*
X31500Y-20150D03*
X31500Y-20850D03*
G54D32*
X36600Y-19000D03*
X35900Y-19000D03*
G54D13*
X38500Y-19000D03*
X38500Y-18300D03*
G54D32*
X17750Y-17600D03*
X18450Y-17600D03*
X31500Y-24250D03*
X32200Y-24250D03*
G54D13*
X30000Y-11250D03*
X30000Y-11950D03*
X23250Y-11650D03*
X23250Y-12350D03*
G54D32*
X38250Y-13500D03*
X37550Y-13500D03*
X42600Y-22750D03*
X41900Y-22750D03*
X42600Y-23750D03*
X41900Y-23750D03*
X42400Y-20750D03*
X43100Y-20750D03*
X42400Y-18250D03*
X43100Y-18250D03*
X18350Y-25000D03*
X17650Y-25000D03*
X18350Y-28000D03*
X17650Y-28000D03*
X35150Y-16250D03*
X35850Y-16250D03*
X23850Y-18000D03*
X23150Y-18000D03*
X17750Y-18600D03*
X18450Y-18600D03*
G54D13*
X34750Y-11550D03*
X34750Y-12250D03*
X20250Y-13750D03*
X20250Y-14450D03*
X42250Y-10900D03*
X42250Y-11600D03*
X37250Y-11550D03*
X37250Y-12250D03*
G54D32*
X34400Y-19000D03*
X35100Y-19000D03*
G54D13*
X22000Y-20150D03*
X22000Y-20850D03*
X23000Y-23350D03*
X23000Y-22650D03*
X19250Y-13750D03*
X19250Y-14450D03*
X33500Y-19000D03*
X33500Y-19700D03*
G54D32*
X36350Y-12250D03*
X35650Y-12250D03*
G54D13*
X44250Y-10900D03*
X44250Y-11600D03*
X43250Y-11600D03*
X43250Y-10900D03*
G54D32*
X27600Y-14200D03*
X26900Y-14200D03*
X11850Y-15750D03*
X11150Y-15750D03*
G54D13*
X12050Y-14550D03*
X12050Y-13850D03*
X44250Y-15350D03*
X44250Y-14650D03*
X42750Y-12400D03*
X42750Y-13100D03*
X41750Y-13350D03*
X41750Y-12650D03*
G54D34*
X15744Y-25726D03*
X16256Y-25726D03*
X16000Y-26474D03*
G54D35*
X39750Y-13321D03*
X39750Y-12179D03*
X43321Y-17000D03*
X42179Y-17000D03*
X15250Y-19971D03*
X15250Y-18829D03*
G54D36*
X46742Y-14750D03*
X45758Y-14750D03*
G54D35*
X16350Y-19971D03*
X16350Y-18829D03*
G54D32*
X20400Y-26000D03*
X21100Y-26000D03*
X14400Y-26500D03*
X15100Y-26500D03*
X16900Y-26500D03*
X17600Y-26500D03*
G54D13*
X45250Y-16400D03*
X45250Y-17100D03*
X38100Y-25900D03*
X38100Y-26600D03*
G54D11*
X39764Y-26456D03*
X38936Y-26456D03*
X38936Y-25944D03*
X38936Y-26200D03*
X39764Y-25944D03*
X39764Y-26200D03*
G54D14*
X32120Y-16250D03*
G54D15*
X31500Y-15659D03*
X31500Y-16841D03*
G54D37*
X27500Y-22370D03*
G54D38*
X28091Y-21750D03*
X26909Y-21750D03*
G54D14*
X25630Y-19000D03*
G54D15*
X26250Y-19591D03*
X26250Y-18409D03*
G54D14*
X33870Y-12250D03*
G54D15*
X33250Y-11659D03*
X33250Y-12841D03*
G54D13*
X38100Y-23000D03*
X38100Y-23700D03*
G54D32*
X39400Y-22200D03*
X38700Y-22200D03*
X10700Y-22700D03*
X11400Y-22700D03*
G54D13*
X38100Y-24450D03*
X38100Y-25150D03*
M02*
