G04 (created by PCBNEW (2013-07-07 BZR 4022)-stable) date 3/2/2015 1:41:46 AM*
%MOIN*%
G04 Gerber Fmt 3.4, Leading zero omitted, Abs format*
%FSLAX34Y34*%
G01*
G70*
G90*
G04 APERTURE LIST*
%ADD10C,0.006*%
%ADD11C,0.062*%
%ADD12C,0.068*%
%ADD13C,0.132*%
%ADD14C,0.057*%
%ADD15R,0.068X0.068*%
%ADD16C,0.054*%
%ADD17R,0.058X0.058*%
%ADD18C,0.058*%
%ADD19C,0.257906*%
%ADD20C,0.222*%
%ADD21C,0.082*%
%ADD22C,0.184*%
%ADD23C,0.242*%
%ADD24C,0.097*%
%ADD25C,0.092*%
%ADD26C,0.252*%
%ADD27C,0.066*%
%ADD28C,0.102*%
%ADD29R,0.046X0.046*%
%ADD30R,0.0414X0.0433*%
%ADD31R,0.0886X0.0433*%
G04 APERTURE END LIST*
G54D10*
G54D11*
X13750Y-18000D03*
X13750Y-17000D03*
X11750Y-17000D03*
X11750Y-18000D03*
X12750Y-17000D03*
X12750Y-18000D03*
G54D12*
X16525Y-21500D03*
X13325Y-21500D03*
G54D11*
X14000Y-14600D03*
X13000Y-14600D03*
X13000Y-13813D03*
X14000Y-13813D03*
G54D13*
X15862Y-12750D03*
X11138Y-12750D03*
G54D14*
X47037Y-22500D03*
X46250Y-22500D03*
X45463Y-22500D03*
G54D15*
X15250Y-17400D03*
G54D12*
X16250Y-17400D03*
G54D16*
X18100Y-14544D03*
X18100Y-13756D03*
X20250Y-17644D03*
X20250Y-16856D03*
G54D14*
X28000Y-12394D03*
X28000Y-11606D03*
G54D17*
X47144Y-16000D03*
G54D18*
X46356Y-16000D03*
G54D19*
X34710Y-21088D03*
G54D20*
X29564Y-14064D03*
G54D21*
X19750Y-11750D03*
X24750Y-11750D03*
G54D22*
X24564Y-28435D03*
G54D19*
X19750Y-21088D03*
G54D23*
X40000Y-24000D03*
G54D24*
X45250Y-13500D03*
X47250Y-11500D03*
X45250Y-11500D03*
G54D25*
X46250Y-12500D03*
G54D24*
X47250Y-13500D03*
X10750Y-27500D03*
X12750Y-27500D03*
X12750Y-25500D03*
G54D25*
X11750Y-26500D03*
G54D24*
X10750Y-25500D03*
X47250Y-18500D03*
X45250Y-18500D03*
X45250Y-20500D03*
G54D25*
X46250Y-19500D03*
G54D24*
X47250Y-20500D03*
G54D11*
X45100Y-14750D03*
G54D23*
X15000Y-24000D03*
G54D26*
X12000Y-20500D03*
G54D23*
X39000Y-28500D03*
G54D27*
X40000Y-11000D03*
X39000Y-11000D03*
G54D28*
X47250Y-27984D03*
X47250Y-26016D03*
X42250Y-28850D03*
X42250Y-27000D03*
X42250Y-25150D03*
G54D29*
X44250Y-15260D03*
X44250Y-14740D03*
X44250Y-15000D03*
X42750Y-12490D03*
X42750Y-13010D03*
X42750Y-12750D03*
X41750Y-13260D03*
X41750Y-12740D03*
X41750Y-13000D03*
X40710Y-14100D03*
X40190Y-14100D03*
X40450Y-14100D03*
G54D11*
X47300Y-14750D03*
G54D16*
X40450Y-26794D03*
X40450Y-26006D03*
G54D30*
X45630Y-14750D03*
G54D31*
X46250Y-14159D03*
X46250Y-15341D03*
G54D18*
X38100Y-22200D03*
M02*
