G04 (created by PCBNEW (2013-07-07 BZR 4022)-stable) date 3/2/2015 1:41:46 AM*
%MOIN*%
G04 Gerber Fmt 3.4, Leading zero omitted, Abs format*
%FSLAX34Y34*%
G01*
G70*
G90*
G04 APERTURE LIST*
%ADD10C,0.006*%
%ADD11C,0.062*%
%ADD12R,0.03X0.014*%
%ADD13R,0.092X0.092*%
%ADD14C,0.068*%
%ADD15R,0.057X0.042*%
%ADD16C,0.132*%
%ADD17R,0.0414X0.0433*%
%ADD18R,0.0886X0.0433*%
%ADD19R,0.062X0.062*%
%ADD20C,0.057*%
%ADD21R,0.062X0.052*%
%ADD22R,0.028X0.025*%
%ADD23R,0.028X0.018*%
%ADD24R,0.025X0.028*%
%ADD25R,0.018X0.028*%
%ADD26R,0.017748X0.028*%
%ADD27R,0.068X0.068*%
%ADD28R,0.037X0.026*%
%ADD29C,0.054*%
%ADD30R,0.047X0.062*%
%ADD31R,0.0886142X0.0807402*%
%ADD32R,0.052X0.052*%
%ADD33R,0.057X0.057*%
%ADD34R,0.058X0.058*%
%ADD35C,0.058*%
%ADD36R,0.026X0.037*%
%ADD37R,0.0492X0.0729*%
%ADD38C,0.257906*%
%ADD39C,0.222*%
%ADD40C,0.082*%
%ADD41C,0.184*%
%ADD42R,0.026X0.04*%
%ADD43C,0.242*%
%ADD44R,0.027X0.047*%
%ADD45C,0.097*%
%ADD46C,0.092*%
%ADD47R,0.0571X0.0374*%
%ADD48R,0.0571X0.037*%
%ADD49C,0.252*%
%ADD50R,0.0374X0.0571*%
%ADD51R,0.037X0.0571*%
%ADD52R,0.102X0.067*%
%ADD53C,0.066*%
%ADD54C,0.102*%
%ADD55R,0.042X0.057*%
%ADD56R,0.047X0.027*%
%ADD57R,0.0296X0.0374*%
%ADD58R,0.0492X0.0492*%
%ADD59R,0.0335X0.0256*%
%ADD60R,0.0433X0.0414*%
%ADD61R,0.0433X0.0886*%
G04 APERTURE END LIST*
G54D10*
G54D11*
X13750Y-18000D03*
X13750Y-17000D03*
X11750Y-17000D03*
X11750Y-18000D03*
X12750Y-17000D03*
X12750Y-18000D03*
G54D12*
X44336Y-23994D03*
X45164Y-23994D03*
X45164Y-24506D03*
X45164Y-24250D03*
X44336Y-24506D03*
X44336Y-24250D03*
G54D13*
X15825Y-21500D03*
X14025Y-21500D03*
G54D14*
X16525Y-21500D03*
X13325Y-21500D03*
G54D15*
X40850Y-12450D03*
X40850Y-13150D03*
G54D11*
X14000Y-14600D03*
X13000Y-14600D03*
X13000Y-13813D03*
X14000Y-13813D03*
G54D16*
X15862Y-12750D03*
X11138Y-12750D03*
G54D17*
X26020Y-14200D03*
G54D18*
X25400Y-13609D03*
X25400Y-14791D03*
G54D15*
X33000Y-16250D03*
X33000Y-15550D03*
G54D11*
X17350Y-20694D03*
X17350Y-19906D03*
G54D19*
X17350Y-20300D03*
G54D20*
X47037Y-22500D03*
X46250Y-22500D03*
X45463Y-22500D03*
G54D21*
X45850Y-22500D03*
G54D22*
X42375Y-14192D03*
X42375Y-14807D03*
G54D23*
X42375Y-14500D03*
X43124Y-14500D03*
G54D22*
X43124Y-14807D03*
X43124Y-14192D03*
G54D24*
X44307Y-12375D03*
X43692Y-12375D03*
G54D25*
X44000Y-12375D03*
G54D26*
X44000Y-13124D03*
G54D24*
X43692Y-13124D03*
X44307Y-13124D03*
G54D27*
X15250Y-17400D03*
G54D14*
X16250Y-17400D03*
G54D28*
X42000Y-19125D03*
X42000Y-19875D03*
X41000Y-19875D03*
X41000Y-19500D03*
X41000Y-19125D03*
X42000Y-19500D03*
G54D29*
X18100Y-14544D03*
X18100Y-13756D03*
G54D30*
X18100Y-14150D03*
G54D31*
X21750Y-13883D03*
X23750Y-13883D03*
X21750Y-15616D03*
X23750Y-15616D03*
G54D29*
X20250Y-17644D03*
X20250Y-16856D03*
G54D32*
X20250Y-17250D03*
G54D20*
X28000Y-12394D03*
X28000Y-11606D03*
G54D33*
X28000Y-12000D03*
G54D34*
X47144Y-16000D03*
G54D35*
X46356Y-16000D03*
G54D36*
X40875Y-16000D03*
X40125Y-16000D03*
X40125Y-15000D03*
X40500Y-15000D03*
X40875Y-15000D03*
G54D37*
X46120Y-17000D03*
X47380Y-17000D03*
X41405Y-17025D03*
X40145Y-17025D03*
G54D38*
X34710Y-21088D03*
G54D39*
X29564Y-14064D03*
G54D40*
X19750Y-11750D03*
X24750Y-11750D03*
G54D41*
X24564Y-28435D03*
G54D38*
X19750Y-21088D03*
G54D42*
X14375Y-20250D03*
X13625Y-20250D03*
X14000Y-19250D03*
G54D43*
X40000Y-24000D03*
G54D28*
X18500Y-26875D03*
X18500Y-26125D03*
X19500Y-26125D03*
X19500Y-26500D03*
X19500Y-26875D03*
X18500Y-26500D03*
G54D44*
X44750Y-26250D03*
X45350Y-26250D03*
X44150Y-26250D03*
G54D45*
X45250Y-13500D03*
X47250Y-11500D03*
X45250Y-11500D03*
G54D46*
X46250Y-12500D03*
G54D45*
X47250Y-13500D03*
X10750Y-27500D03*
X12750Y-27500D03*
X12750Y-25500D03*
G54D46*
X11750Y-26500D03*
G54D45*
X10750Y-25500D03*
X47250Y-18500D03*
X45250Y-18500D03*
X45250Y-20500D03*
G54D46*
X46250Y-19500D03*
G54D45*
X47250Y-20500D03*
G54D47*
X41250Y-10876D03*
G54D48*
X41250Y-11624D03*
G54D11*
X45100Y-14750D03*
G54D43*
X15000Y-24000D03*
G54D49*
X12000Y-20500D03*
G54D43*
X39000Y-28500D03*
G54D50*
X15474Y-15750D03*
G54D51*
X14726Y-15750D03*
G54D52*
X27750Y-18000D03*
X27750Y-19000D03*
X27750Y-20000D03*
X29750Y-20000D03*
X29750Y-19000D03*
X29750Y-18000D03*
G54D53*
X40000Y-11000D03*
X39000Y-11000D03*
G54D54*
X47250Y-27984D03*
X47250Y-26016D03*
X42250Y-28850D03*
X42250Y-27000D03*
X42250Y-25150D03*
G54D55*
X13650Y-15750D03*
X12950Y-15750D03*
X42800Y-19500D03*
X43500Y-19500D03*
X39400Y-19000D03*
X40100Y-19000D03*
X39400Y-20000D03*
X40100Y-20000D03*
X22000Y-24250D03*
X21300Y-24250D03*
G54D15*
X23000Y-20850D03*
X23000Y-20150D03*
G54D55*
X22000Y-19000D03*
X21300Y-19000D03*
X23150Y-19000D03*
X23850Y-19000D03*
G54D15*
X24750Y-19000D03*
X24750Y-19700D03*
X22000Y-22650D03*
X22000Y-23350D03*
G54D55*
X22000Y-21750D03*
X22700Y-21750D03*
X28400Y-25250D03*
X29100Y-25250D03*
X31500Y-23250D03*
X32200Y-23250D03*
X27500Y-24250D03*
X26800Y-24250D03*
G54D15*
X31500Y-22350D03*
X31500Y-21650D03*
G54D55*
X38250Y-14750D03*
X37550Y-14750D03*
X42650Y-16000D03*
X43350Y-16000D03*
G54D15*
X41750Y-16100D03*
X41750Y-15400D03*
G54D55*
X37350Y-16250D03*
X36650Y-16250D03*
G54D15*
X34000Y-16250D03*
X34000Y-15550D03*
G54D56*
X13600Y-26550D03*
X13600Y-27150D03*
G54D55*
X40100Y-14100D03*
X40800Y-14100D03*
G54D15*
X29000Y-11250D03*
X29000Y-11950D03*
G54D56*
X44300Y-19450D03*
X44300Y-18850D03*
G54D36*
X18125Y-15500D03*
X18875Y-15500D03*
X18875Y-16500D03*
X18500Y-16500D03*
X18125Y-16500D03*
G54D28*
X27000Y-11625D03*
X27000Y-12375D03*
X26000Y-12375D03*
X26000Y-12000D03*
X26000Y-11625D03*
X32000Y-11625D03*
X32000Y-12375D03*
X31000Y-12375D03*
X31000Y-12000D03*
X31000Y-11625D03*
G54D15*
X37500Y-19000D03*
X37500Y-18300D03*
G54D44*
X44750Y-27750D03*
X44150Y-27750D03*
X45350Y-27750D03*
G54D15*
X46500Y-23900D03*
X46500Y-24600D03*
X44250Y-17100D03*
X44250Y-16400D03*
G54D55*
X27500Y-23250D03*
X26800Y-23250D03*
X30600Y-25250D03*
X29900Y-25250D03*
G54D15*
X32500Y-19000D03*
X32500Y-19700D03*
X31500Y-20150D03*
X31500Y-20850D03*
G54D55*
X36600Y-19000D03*
X35900Y-19000D03*
G54D15*
X38500Y-19000D03*
X38500Y-18300D03*
G54D55*
X17750Y-17600D03*
X18450Y-17600D03*
X31500Y-24250D03*
X32200Y-24250D03*
G54D15*
X30000Y-11250D03*
X30000Y-11950D03*
X23250Y-11650D03*
X23250Y-12350D03*
G54D55*
X38250Y-13500D03*
X37550Y-13500D03*
X42600Y-22750D03*
X41900Y-22750D03*
X42600Y-23750D03*
X41900Y-23750D03*
X42400Y-20750D03*
X43100Y-20750D03*
X42400Y-18250D03*
X43100Y-18250D03*
X18350Y-25000D03*
X17650Y-25000D03*
X18350Y-28000D03*
X17650Y-28000D03*
X35150Y-16250D03*
X35850Y-16250D03*
X23850Y-18000D03*
X23150Y-18000D03*
X17750Y-18600D03*
X18450Y-18600D03*
G54D15*
X34750Y-11550D03*
X34750Y-12250D03*
X20250Y-13750D03*
X20250Y-14450D03*
X42250Y-10900D03*
X42250Y-11600D03*
X37250Y-11550D03*
X37250Y-12250D03*
G54D55*
X34400Y-19000D03*
X35100Y-19000D03*
G54D15*
X22000Y-20150D03*
X22000Y-20850D03*
X23000Y-23350D03*
X23000Y-22650D03*
X19250Y-13750D03*
X19250Y-14450D03*
X33500Y-19000D03*
X33500Y-19700D03*
G54D55*
X36350Y-12250D03*
X35650Y-12250D03*
G54D15*
X44250Y-10900D03*
X44250Y-11600D03*
X43250Y-11600D03*
X43250Y-10900D03*
G54D55*
X27600Y-14200D03*
X26900Y-14200D03*
X11850Y-15750D03*
X11150Y-15750D03*
G54D15*
X12050Y-14550D03*
X12050Y-13850D03*
X44250Y-15350D03*
X44250Y-14650D03*
X42750Y-12400D03*
X42750Y-13100D03*
X41750Y-13350D03*
X41750Y-12650D03*
G54D11*
X47300Y-14750D03*
G54D57*
X15744Y-25726D03*
X16256Y-25726D03*
X16000Y-26474D03*
G54D58*
X39750Y-13321D03*
X39750Y-12179D03*
X43321Y-17000D03*
X42179Y-17000D03*
X15250Y-19971D03*
X15250Y-18829D03*
G54D59*
X46742Y-14750D03*
X45758Y-14750D03*
G54D58*
X16350Y-19971D03*
X16350Y-18829D03*
G54D55*
X20400Y-26000D03*
X21100Y-26000D03*
X14400Y-26500D03*
X15100Y-26500D03*
X16900Y-26500D03*
X17600Y-26500D03*
G54D15*
X45250Y-16400D03*
X45250Y-17100D03*
X38100Y-25900D03*
X38100Y-26600D03*
G54D12*
X39764Y-26456D03*
X38936Y-26456D03*
X38936Y-25944D03*
X38936Y-26200D03*
X39764Y-25944D03*
X39764Y-26200D03*
G54D29*
X40450Y-26794D03*
X40450Y-26006D03*
G54D17*
X32120Y-16250D03*
G54D18*
X31500Y-15659D03*
X31500Y-16841D03*
G54D60*
X27500Y-22370D03*
G54D61*
X28091Y-21750D03*
X26909Y-21750D03*
G54D17*
X25630Y-19000D03*
G54D18*
X26250Y-19591D03*
X26250Y-18409D03*
G54D17*
X33870Y-12250D03*
G54D18*
X33250Y-11659D03*
X33250Y-12841D03*
G54D35*
X38100Y-22200D03*
G54D15*
X38100Y-23000D03*
X38100Y-23700D03*
G54D55*
X39400Y-22200D03*
X38700Y-22200D03*
X10700Y-22700D03*
X11400Y-22700D03*
G54D15*
X38100Y-24450D03*
X38100Y-25150D03*
M02*
