G04 (created by PCBNEW (2013-07-07 BZR 4022)-stable) date 3/2/2015 1:41:46 AM*
%MOIN*%
G04 Gerber Fmt 3.4, Leading zero omitted, Abs format*
%FSLAX34Y34*%
G01*
G70*
G90*
G04 APERTURE LIST*
%ADD10C,0.006*%
%ADD11C,0.06*%
%ADD12C,0.066*%
%ADD13C,0.13*%
%ADD14C,0.055*%
%ADD15R,0.066X0.066*%
%ADD16C,0.052*%
%ADD17R,0.056X0.056*%
%ADD18C,0.056*%
%ADD19C,0.036*%
%ADD20C,0.045*%
%ADD21C,0.255906*%
%ADD22C,0.22*%
%ADD23C,0.08*%
%ADD24C,0.182*%
%ADD25C,0.24*%
%ADD26C,0.095*%
%ADD27C,0.09*%
%ADD28C,0.25*%
%ADD29C,0.042*%
%ADD30C,0.064*%
%ADD31C,0.1*%
%ADD32R,0.044X0.044*%
%ADD33R,0.0394X0.0413*%
%ADD34R,0.0866X0.0413*%
%ADD35C,0.012*%
%ADD36C,0.045*%
%ADD37C,0.044*%
%ADD38C,0.036*%
%ADD39C,0.008*%
%ADD40C,0.024*%
%ADD41C,0.01*%
G04 APERTURE END LIST*
G54D10*
G54D11*
X13750Y-18000D03*
X13750Y-17000D03*
X11750Y-17000D03*
X11750Y-18000D03*
X12750Y-17000D03*
X12750Y-18000D03*
G54D12*
X16525Y-21500D03*
X13325Y-21500D03*
G54D11*
X14000Y-14600D03*
X13000Y-14600D03*
X13000Y-13813D03*
X14000Y-13813D03*
G54D13*
X15862Y-12750D03*
X11138Y-12750D03*
G54D11*
X17350Y-20694D03*
X17350Y-19906D03*
G54D14*
X47037Y-22500D03*
X46250Y-22500D03*
X45463Y-22500D03*
G54D15*
X15250Y-17400D03*
G54D12*
X16250Y-17400D03*
G54D16*
X18100Y-14544D03*
X18100Y-13756D03*
X20250Y-17644D03*
X20250Y-16856D03*
G54D14*
X28000Y-12394D03*
X28000Y-11606D03*
G54D17*
X47144Y-16000D03*
G54D18*
X46356Y-16000D03*
G54D19*
X26500Y-12000D03*
X25550Y-12000D03*
X26600Y-12850D03*
X33500Y-15200D03*
X34600Y-15750D03*
X35500Y-15750D03*
X23950Y-11050D03*
X26000Y-12850D03*
X36250Y-15700D03*
X35050Y-15400D03*
X35850Y-15350D03*
X27200Y-12850D03*
X30500Y-17375D03*
X32250Y-15750D03*
X32200Y-16750D03*
X33300Y-16750D03*
X33850Y-16750D03*
X32750Y-16750D03*
X32250Y-12800D03*
X31850Y-13150D03*
X34400Y-16750D03*
X35500Y-16750D03*
X34950Y-16800D03*
X36050Y-16800D03*
X36650Y-16800D03*
X38850Y-17000D03*
X37200Y-16800D03*
X23050Y-19600D03*
X22500Y-19675D03*
X26900Y-26500D03*
X34750Y-26500D03*
X32550Y-26500D03*
X31850Y-26500D03*
X35750Y-26500D03*
X26400Y-22850D03*
X27200Y-26050D03*
X28000Y-24750D03*
X31000Y-24750D03*
X32000Y-19500D03*
X32050Y-20150D03*
X32100Y-20750D03*
X26250Y-20000D03*
X25725Y-20050D03*
X33100Y-18500D03*
X33850Y-18500D03*
X34750Y-18500D03*
X35500Y-18500D03*
X36250Y-18500D03*
X36950Y-18500D03*
X39050Y-18500D03*
X39750Y-18500D03*
X39750Y-17900D03*
X43000Y-18900D03*
X43000Y-20100D03*
X44100Y-18300D03*
X44600Y-17950D03*
X44050Y-20700D03*
X37000Y-26100D03*
X36000Y-25750D03*
X36000Y-24900D03*
X37750Y-20500D03*
X37000Y-20500D03*
X37000Y-23450D03*
X34050Y-19500D03*
X35500Y-19500D03*
X36250Y-19500D03*
X39000Y-19500D03*
X38400Y-19500D03*
X37800Y-19500D03*
X37000Y-19500D03*
X36000Y-20000D03*
X36000Y-22500D03*
X36000Y-23250D03*
X36000Y-24100D03*
X37000Y-24350D03*
X37000Y-25200D03*
X37000Y-26650D03*
X37000Y-21300D03*
X37950Y-27000D03*
X37000Y-22500D03*
X35200Y-27500D03*
X35725Y-27500D03*
X36250Y-27500D03*
X34300Y-27500D03*
X33250Y-27500D03*
X32350Y-27500D03*
X31300Y-27500D03*
X32600Y-23000D03*
X32600Y-23500D03*
X31200Y-26500D03*
X32600Y-24000D03*
X32600Y-24500D03*
X31550Y-26000D03*
X33400Y-20100D03*
X32050Y-21500D03*
X32050Y-22250D03*
X32000Y-22950D03*
X26400Y-23950D03*
X34000Y-26500D03*
X33250Y-26500D03*
X28750Y-24750D03*
X30250Y-24750D03*
X38650Y-17900D03*
X37400Y-17900D03*
X29500Y-24750D03*
X28000Y-20600D03*
X28000Y-23100D03*
X28000Y-24200D03*
X31000Y-23550D03*
X31000Y-24150D03*
X30950Y-21550D03*
X28500Y-22050D03*
X30400Y-19500D03*
X28500Y-21400D03*
X26500Y-22050D03*
X26500Y-21400D03*
X27000Y-21050D03*
X26800Y-20500D03*
X28000Y-23650D03*
X30450Y-20450D03*
X28050Y-17450D03*
X22500Y-23850D03*
X23100Y-23850D03*
X31000Y-22900D03*
X30950Y-22300D03*
X32900Y-20100D03*
X32500Y-20400D03*
X38450Y-20500D03*
X39050Y-20500D03*
X39750Y-20500D03*
X40500Y-20500D03*
X31850Y-17300D03*
X22500Y-24450D03*
X22500Y-25000D03*
X22500Y-25550D03*
X33100Y-20600D03*
X27960Y-16410D03*
X30500Y-27500D03*
X29750Y-27500D03*
X29050Y-27500D03*
X28350Y-27500D03*
X27650Y-27500D03*
X26950Y-27500D03*
X26250Y-27500D03*
X25550Y-27500D03*
X23600Y-27500D03*
X24950Y-26500D03*
X23750Y-26500D03*
X24300Y-26500D03*
X25600Y-26500D03*
X23100Y-22150D03*
X23550Y-21850D03*
X23550Y-22450D03*
X23550Y-23000D03*
X23550Y-23550D03*
G54D20*
X20850Y-24300D03*
G54D19*
X21000Y-23750D03*
X21500Y-24800D03*
X21550Y-16450D03*
X20975Y-24875D03*
X38300Y-17300D03*
G54D20*
X18500Y-16900D03*
G54D19*
X20050Y-18400D03*
G54D20*
X18950Y-18500D03*
G54D19*
X31350Y-18000D03*
X33050Y-17200D03*
X35300Y-17200D03*
X21450Y-23000D03*
X21450Y-22400D03*
X21500Y-23700D03*
X21500Y-21850D03*
X18650Y-19100D03*
X14200Y-15750D03*
X10800Y-16900D03*
X10450Y-29550D03*
X36550Y-17350D03*
X17600Y-15350D03*
X13750Y-22250D03*
G54D20*
X18950Y-17300D03*
X18950Y-17900D03*
G54D19*
X43150Y-28450D03*
G54D20*
X19900Y-15450D03*
G54D19*
X12100Y-23300D03*
X17350Y-21500D03*
X18100Y-19650D03*
X17100Y-18700D03*
X20910Y-15680D03*
X19275Y-14825D03*
X12450Y-22200D03*
G54D20*
X18850Y-22800D03*
X18350Y-22300D03*
X13650Y-20700D03*
G54D19*
X12400Y-15750D03*
G54D20*
X36750Y-28600D03*
G54D19*
X25900Y-27900D03*
G54D20*
X14950Y-14550D03*
X23350Y-25300D03*
X13500Y-11900D03*
G54D19*
X26600Y-27900D03*
X10800Y-18050D03*
X27300Y-27900D03*
X28000Y-27900D03*
X28700Y-27900D03*
X29400Y-27900D03*
X30100Y-27900D03*
X47500Y-29500D03*
X28650Y-29150D03*
G54D20*
X29450Y-17300D03*
G54D19*
X29500Y-16550D03*
X21500Y-25500D03*
X43500Y-27650D03*
X41550Y-24250D03*
X41950Y-23250D03*
X42350Y-22150D03*
G54D20*
X45750Y-24250D03*
X25400Y-15200D03*
G54D19*
X37750Y-14125D03*
X26050Y-13300D03*
G54D20*
X46500Y-23450D03*
X25400Y-13200D03*
G54D19*
X24750Y-13300D03*
X44250Y-22400D03*
X26050Y-15050D03*
X24750Y-15100D03*
G54D20*
X40600Y-22200D03*
G54D19*
X38100Y-20900D03*
X20750Y-26500D03*
X21450Y-26500D03*
X22000Y-26400D03*
X20400Y-25000D03*
X43700Y-21850D03*
X19900Y-25450D03*
G54D20*
X41800Y-22200D03*
G54D19*
X39300Y-21000D03*
G54D20*
X41800Y-21400D03*
X40600Y-21400D03*
G54D19*
X16650Y-27050D03*
X22350Y-26050D03*
X22650Y-26500D03*
X23200Y-26500D03*
X22950Y-27500D03*
X22400Y-27500D03*
X21850Y-27500D03*
X21300Y-27500D03*
X20750Y-27500D03*
X20200Y-27500D03*
X19650Y-27500D03*
X17950Y-26000D03*
X16650Y-25950D03*
X20500Y-28350D03*
X19750Y-28350D03*
G54D20*
X17250Y-25950D03*
X17250Y-27050D03*
X17150Y-25000D03*
X16050Y-27050D03*
X16250Y-25100D03*
X17200Y-28000D03*
G54D19*
X14750Y-26000D03*
X15350Y-27050D03*
X20750Y-25500D03*
G54D20*
X17600Y-28650D03*
G54D19*
X14750Y-27000D03*
X14100Y-27050D03*
X13600Y-26000D03*
X13600Y-27500D03*
X16200Y-28200D03*
X31850Y-27850D03*
X32800Y-27900D03*
X33800Y-27800D03*
X37350Y-20900D03*
X43150Y-26300D03*
X43150Y-25050D03*
X32250Y-25900D03*
X29350Y-21300D03*
X17050Y-24400D03*
X32750Y-25400D03*
X33150Y-25850D03*
X25900Y-25650D03*
X26550Y-25600D03*
X30900Y-27900D03*
X15350Y-25950D03*
X25600Y-21050D03*
X30200Y-21100D03*
X32600Y-22400D03*
X34250Y-22750D03*
X33600Y-22350D03*
X37000Y-21900D03*
X29750Y-22700D03*
X29450Y-23250D03*
X14150Y-25950D03*
X21000Y-20000D03*
X17950Y-27000D03*
X14500Y-18850D03*
X27350Y-16425D03*
X13500Y-28600D03*
X25000Y-17250D03*
G54D21*
X34710Y-21088D03*
G54D22*
X29564Y-14064D03*
G54D23*
X19750Y-11750D03*
X24750Y-11750D03*
G54D24*
X24564Y-28435D03*
G54D21*
X19750Y-21088D03*
G54D25*
X40000Y-24000D03*
G54D20*
X19900Y-26500D03*
X40600Y-19500D03*
G54D26*
X45250Y-13500D03*
X47250Y-11500D03*
X45250Y-11500D03*
G54D27*
X46250Y-12500D03*
G54D26*
X47250Y-13500D03*
X10750Y-27500D03*
X12750Y-27500D03*
X12750Y-25500D03*
G54D27*
X11750Y-26500D03*
G54D26*
X10750Y-25500D03*
X47250Y-18500D03*
X45250Y-18500D03*
X45250Y-20500D03*
G54D27*
X46250Y-19500D03*
G54D26*
X47250Y-20500D03*
G54D19*
X22750Y-12600D03*
X23250Y-12750D03*
X33250Y-13250D03*
X34050Y-11750D03*
G54D11*
X45100Y-14750D03*
G54D25*
X15000Y-24000D03*
G54D28*
X12000Y-20500D03*
G54D19*
X35650Y-11250D03*
G54D25*
X39000Y-28500D03*
G54D19*
X28900Y-12350D03*
X33750Y-11250D03*
X35350Y-11700D03*
X20250Y-12350D03*
G54D20*
X31000Y-12850D03*
G54D19*
X37000Y-13750D03*
X36650Y-11700D03*
X37000Y-14250D03*
G54D29*
X37000Y-14750D03*
G54D19*
X32350Y-11150D03*
X25900Y-29500D03*
G54D20*
X19840Y-14850D03*
G54D30*
X40000Y-11000D03*
X39000Y-11000D03*
G54D20*
X22600Y-18550D03*
G54D19*
X23750Y-12550D03*
X19750Y-12550D03*
G54D20*
X22600Y-19150D03*
G54D19*
X37550Y-11150D03*
G54D20*
X20900Y-14300D03*
G54D19*
X36350Y-11250D03*
G54D20*
X20450Y-14850D03*
X23750Y-16200D03*
G54D19*
X36950Y-11150D03*
X25850Y-28575D03*
G54D20*
X24350Y-16200D03*
G54D19*
X34700Y-12750D03*
X36000Y-12800D03*
X37000Y-13250D03*
X21000Y-11550D03*
G54D20*
X23150Y-16200D03*
G54D19*
X31700Y-15250D03*
X36000Y-11700D03*
G54D20*
X24450Y-15616D03*
X24150Y-19950D03*
G54D19*
X36750Y-12750D03*
X35300Y-12750D03*
X32400Y-18500D03*
G54D20*
X30500Y-23200D03*
G54D19*
X23250Y-28300D03*
X23250Y-29500D03*
G54D31*
X47250Y-27984D03*
X47250Y-26016D03*
X42250Y-28850D03*
X42250Y-27000D03*
X42250Y-25150D03*
G54D19*
X33200Y-11250D03*
X33800Y-13250D03*
X32700Y-13250D03*
X19250Y-12350D03*
X20500Y-11850D03*
X30100Y-12350D03*
X31450Y-13550D03*
X34000Y-12750D03*
G54D20*
X38000Y-11500D03*
G54D19*
X34450Y-11150D03*
X35050Y-11150D03*
X26900Y-13300D03*
G54D20*
X30250Y-25800D03*
X30600Y-26450D03*
X28350Y-26450D03*
X23650Y-19600D03*
X28750Y-25800D03*
X26800Y-19900D03*
X29500Y-25800D03*
X36750Y-27200D03*
X28000Y-25800D03*
X25450Y-19550D03*
X31250Y-18800D03*
X31800Y-18450D03*
X30950Y-19400D03*
X30550Y-16800D03*
X30900Y-20050D03*
X30900Y-20850D03*
X28750Y-19000D03*
X28750Y-18250D03*
X28750Y-17500D03*
X28750Y-19750D03*
X28750Y-20500D03*
X31200Y-17300D03*
X29750Y-16000D03*
X31000Y-25800D03*
X29750Y-20600D03*
X26350Y-23400D03*
X26350Y-24500D03*
X26950Y-22500D03*
X28050Y-22500D03*
X26950Y-24850D03*
X27300Y-25500D03*
X31800Y-25450D03*
X30650Y-17950D03*
X24900Y-20100D03*
X27600Y-26450D03*
X29100Y-26450D03*
X30650Y-18600D03*
X26250Y-26450D03*
X29850Y-26450D03*
X32050Y-24850D03*
X23500Y-17400D03*
X22550Y-17450D03*
X21750Y-17750D03*
X21450Y-18400D03*
X20850Y-18650D03*
X21400Y-20500D03*
X21450Y-19600D03*
X21450Y-21250D03*
X23150Y-21400D03*
X24400Y-18450D03*
X25450Y-18450D03*
X27000Y-18000D03*
X26250Y-18000D03*
X24300Y-17500D03*
X23000Y-17000D03*
X23950Y-16950D03*
X21950Y-17100D03*
X24800Y-17900D03*
X23600Y-20500D03*
X20850Y-19350D03*
X30600Y-15700D03*
X29500Y-12350D03*
X31100Y-15200D03*
X38500Y-12000D03*
X28900Y-16000D03*
X31600Y-14300D03*
X38800Y-12650D03*
X38800Y-13500D03*
X43550Y-20350D03*
X41500Y-18000D03*
X40500Y-18000D03*
X38000Y-18000D03*
X47500Y-17750D03*
X39250Y-17500D03*
X38500Y-16500D03*
X46750Y-17750D03*
X46000Y-17750D03*
X43550Y-18650D03*
X43550Y-21000D03*
X43550Y-18000D03*
G54D32*
X44250Y-15260D03*
X44250Y-14740D03*
X42750Y-12490D03*
X42750Y-13010D03*
X41750Y-13260D03*
X41750Y-12740D03*
G54D19*
X43500Y-14500D03*
X41900Y-14300D03*
X43600Y-15050D03*
X43350Y-13450D03*
X41200Y-13850D03*
X44000Y-12750D03*
X44000Y-13500D03*
X41200Y-14350D03*
X44250Y-15700D03*
X44250Y-14400D03*
X42750Y-13450D03*
X43150Y-12400D03*
X41750Y-12300D03*
X41750Y-13700D03*
X40125Y-15500D03*
G54D20*
X40125Y-16300D03*
G54D19*
X42100Y-16400D03*
X41950Y-10550D03*
X40325Y-11800D03*
X42550Y-10550D03*
X43950Y-10550D03*
X44550Y-10550D03*
G54D32*
X40710Y-14100D03*
X40190Y-14100D03*
G54D19*
X39800Y-14100D03*
X45350Y-15650D03*
X39550Y-14700D03*
X41350Y-16100D03*
G54D11*
X47300Y-14750D03*
G54D20*
X38800Y-14250D03*
X38800Y-15750D03*
X37850Y-16800D03*
X38800Y-15000D03*
X37700Y-15650D03*
X32950Y-15050D03*
X37700Y-12800D03*
X34050Y-15050D03*
X12550Y-23650D03*
X13200Y-22850D03*
X22500Y-29100D03*
X27100Y-28950D03*
G54D19*
X12600Y-22750D03*
X13150Y-23600D03*
X27700Y-29000D03*
X21900Y-29150D03*
G54D20*
X21650Y-28500D03*
X26450Y-28500D03*
G54D19*
X21100Y-28550D03*
X27000Y-28350D03*
G54D20*
X41200Y-21250D03*
X41200Y-22350D03*
G54D19*
X41300Y-22950D03*
X41650Y-20850D03*
G54D18*
X28150Y-14900D03*
X34500Y-13650D03*
X21500Y-12500D03*
X17350Y-11800D03*
X28750Y-23050D03*
X33550Y-25200D03*
X29200Y-22050D03*
X33150Y-14200D03*
X25300Y-21800D03*
X34200Y-24600D03*
X16450Y-23050D03*
X24100Y-23950D03*
G54D20*
X14800Y-13850D03*
X19850Y-24100D03*
X23050Y-25900D03*
X15100Y-28850D03*
X18200Y-23100D03*
X15950Y-28900D03*
X15550Y-27950D03*
X14300Y-28550D03*
X34100Y-23750D03*
X16800Y-28850D03*
X34050Y-25750D03*
G54D19*
X13200Y-29550D03*
G54D20*
X11550Y-28000D03*
X13750Y-25350D03*
X17000Y-23700D03*
X19450Y-24700D03*
G54D19*
X24750Y-24300D03*
X18950Y-24100D03*
X35400Y-13850D03*
X41000Y-18250D03*
X16900Y-14300D03*
X10750Y-15750D03*
X38700Y-26750D03*
X41350Y-27775D03*
X45350Y-27000D03*
X27700Y-13250D03*
X26550Y-14850D03*
X26200Y-20950D03*
G54D16*
X40450Y-26794D03*
X40450Y-26006D03*
G54D33*
X45630Y-14750D03*
G54D34*
X46250Y-14159D03*
X46250Y-15341D03*
G54D18*
X38100Y-22200D03*
G54D35*
X13200Y-22850D02*
X12700Y-22850D01*
X12700Y-22850D02*
X12600Y-22750D01*
X12550Y-23650D02*
X13100Y-23650D01*
X13100Y-23650D02*
X13150Y-23600D01*
X13200Y-22850D02*
X13200Y-23550D01*
X13200Y-23550D02*
X13150Y-23600D01*
X13200Y-22850D02*
X13100Y-22850D01*
X13100Y-22850D02*
X13000Y-22950D01*
G54D36*
X12550Y-23650D02*
X12700Y-23650D01*
X12800Y-22750D02*
X12600Y-22750D01*
X13000Y-22950D02*
X12800Y-22750D01*
X13000Y-23350D02*
X13000Y-22950D01*
X12700Y-23650D02*
X13000Y-23350D01*
G54D37*
X45100Y-14750D02*
X45630Y-14750D01*
G54D38*
X44250Y-15700D02*
X44250Y-15260D01*
G54D39*
X38700Y-26750D02*
X38700Y-26700D01*
X38700Y-26700D02*
X39000Y-26400D01*
X39000Y-26400D02*
X41550Y-26400D01*
X41550Y-26400D02*
X41875Y-26075D01*
X41875Y-26075D02*
X42925Y-26075D01*
X42925Y-26075D02*
X43150Y-26300D01*
G54D35*
X13750Y-22250D02*
X13750Y-25350D01*
X45250Y-13500D02*
X45250Y-13650D01*
X45250Y-13650D02*
X44650Y-14250D01*
X44650Y-14250D02*
X44650Y-15900D01*
X44650Y-15900D02*
X44450Y-16100D01*
X44450Y-16100D02*
X43950Y-16100D01*
X43950Y-16100D02*
X43600Y-15750D01*
X43600Y-15750D02*
X43600Y-15050D01*
G54D40*
X40600Y-21400D02*
X40600Y-22200D01*
X41800Y-21400D02*
X41800Y-22200D01*
G54D41*
X23400Y-28500D02*
X23400Y-28450D01*
X23400Y-28450D02*
X23250Y-28300D01*
X25850Y-28600D02*
X25790Y-28600D01*
X23400Y-28690D02*
X23400Y-28500D01*
X24049Y-29339D02*
X23400Y-28690D01*
X25050Y-29339D02*
X24049Y-29339D01*
X25790Y-28600D02*
X25050Y-29339D01*
G54D38*
X40710Y-14100D02*
X40950Y-14100D01*
X40950Y-14100D02*
X41200Y-14350D01*
X40950Y-14100D02*
X41200Y-13850D01*
X41750Y-13700D02*
X41750Y-13260D01*
X42750Y-13450D02*
X42750Y-13010D01*
X44250Y-14400D02*
X44250Y-14740D01*
X43150Y-12400D02*
X42840Y-12400D01*
X42840Y-12400D02*
X42750Y-12490D01*
X41750Y-12300D02*
X41750Y-12740D01*
G54D40*
X22500Y-29100D02*
X22150Y-29100D01*
X27100Y-28950D02*
X27450Y-28950D01*
X41200Y-21250D02*
X41250Y-21250D01*
X41250Y-21250D02*
X41500Y-21000D01*
X41200Y-22350D02*
X41200Y-22400D01*
X41350Y-22550D02*
X41350Y-22750D01*
X41200Y-22400D02*
X41350Y-22550D01*
X41200Y-21250D02*
X41200Y-22350D01*
X26700Y-29150D02*
X26900Y-29150D01*
X26900Y-29150D02*
X27100Y-28950D01*
G54D41*
X26250Y-29150D02*
X26700Y-29150D01*
X26900Y-29150D02*
X27100Y-28950D01*
G54D40*
X23000Y-29100D02*
X22500Y-29100D01*
G54D41*
X23000Y-29100D02*
X23300Y-29100D01*
X25750Y-29150D02*
X26250Y-29150D01*
X26250Y-29150D02*
X26400Y-29150D01*
X25200Y-29700D02*
X25750Y-29150D01*
X23900Y-29700D02*
X25200Y-29700D01*
X23300Y-29100D02*
X23900Y-29700D01*
G54D40*
X21650Y-28500D02*
X21300Y-28500D01*
X26450Y-28500D02*
X26750Y-28500D01*
X26750Y-28500D02*
X26800Y-28450D01*
X26450Y-28500D02*
X26450Y-28600D01*
X26450Y-28600D02*
X26250Y-28800D01*
G54D41*
X25850Y-28969D02*
X26080Y-28969D01*
X26080Y-28969D02*
X26250Y-28800D01*
X26250Y-28800D02*
X26450Y-28600D01*
G54D40*
X22150Y-28500D02*
X21650Y-28500D01*
G54D41*
X22150Y-28500D02*
X22954Y-28500D01*
X25675Y-28969D02*
X25850Y-28969D01*
X25125Y-29519D02*
X25675Y-28969D01*
X23974Y-29519D02*
X25125Y-29519D01*
X22954Y-28500D02*
X23974Y-29519D01*
G54D38*
X39800Y-14100D02*
X40190Y-14100D01*
G54D10*
G36*
X47690Y-29690D02*
X46840Y-29690D01*
X46840Y-19383D01*
X46840Y-12383D01*
X46750Y-12166D01*
X46584Y-12000D01*
X46367Y-11910D01*
X46133Y-11909D01*
X45916Y-11999D01*
X45750Y-12165D01*
X45660Y-12382D01*
X45659Y-12616D01*
X45749Y-12833D01*
X45915Y-12999D01*
X46132Y-13089D01*
X46366Y-13090D01*
X46583Y-13000D01*
X46749Y-12834D01*
X46839Y-12617D01*
X46840Y-12383D01*
X46840Y-19383D01*
X46810Y-19310D01*
X46810Y-16460D01*
X46810Y-15540D01*
X45990Y-15540D01*
X45990Y-14750D01*
X45967Y-14634D01*
X45967Y-14515D01*
X45945Y-14464D01*
X45906Y-14424D01*
X45854Y-14403D01*
X45799Y-14403D01*
X45697Y-14403D01*
X45630Y-14390D01*
X45362Y-14390D01*
X45349Y-14377D01*
X45187Y-14310D01*
X45012Y-14309D01*
X44851Y-14376D01*
X44727Y-14500D01*
X44660Y-14662D01*
X44659Y-14837D01*
X44726Y-14998D01*
X44850Y-15122D01*
X45012Y-15189D01*
X45187Y-15190D01*
X45348Y-15123D01*
X45362Y-15110D01*
X45630Y-15110D01*
X45697Y-15096D01*
X45854Y-15096D01*
X45906Y-15075D01*
X45945Y-15035D01*
X45966Y-14984D01*
X45967Y-14928D01*
X45967Y-14865D01*
X45990Y-14750D01*
X45990Y-15540D01*
X45890Y-15540D01*
X45890Y-16460D01*
X46810Y-16460D01*
X46810Y-19310D01*
X46750Y-19166D01*
X46584Y-19000D01*
X46367Y-18910D01*
X46133Y-18909D01*
X45916Y-18999D01*
X45750Y-19165D01*
X45660Y-19382D01*
X45659Y-19616D01*
X45749Y-19833D01*
X45915Y-19999D01*
X46132Y-20089D01*
X46366Y-20090D01*
X46583Y-20000D01*
X46749Y-19834D01*
X46839Y-19617D01*
X46840Y-19383D01*
X46840Y-29690D01*
X46710Y-29690D01*
X46710Y-22960D01*
X46710Y-22040D01*
X44990Y-22040D01*
X44990Y-22960D01*
X46710Y-22960D01*
X46710Y-29690D01*
X44610Y-29690D01*
X44610Y-15452D01*
X44610Y-15012D01*
X44604Y-15000D01*
X44609Y-14987D01*
X44610Y-14932D01*
X44610Y-14492D01*
X44588Y-14440D01*
X44570Y-14422D01*
X44570Y-14400D01*
X44569Y-14399D01*
X44570Y-14336D01*
X44545Y-14277D01*
X44545Y-14277D01*
X44521Y-14218D01*
X44476Y-14173D01*
X44431Y-14128D01*
X44372Y-14104D01*
X44372Y-14104D01*
X44313Y-14080D01*
X44250Y-14080D01*
X44250Y-14080D01*
X44249Y-14080D01*
X44186Y-14079D01*
X44127Y-14104D01*
X44127Y-14104D01*
X44127Y-14104D01*
X44068Y-14128D01*
X43978Y-14218D01*
X43954Y-14277D01*
X43954Y-14277D01*
X43954Y-14277D01*
X43930Y-14336D01*
X43930Y-14399D01*
X43930Y-14400D01*
X43930Y-14400D01*
X43929Y-14422D01*
X43911Y-14440D01*
X43890Y-14492D01*
X43889Y-14547D01*
X43889Y-14987D01*
X43895Y-14999D01*
X43890Y-15012D01*
X43889Y-15067D01*
X43889Y-15507D01*
X43911Y-15559D01*
X43930Y-15577D01*
X43930Y-15700D01*
X43930Y-15700D01*
X43929Y-15763D01*
X43954Y-15822D01*
X43954Y-15822D01*
X43978Y-15881D01*
X44023Y-15926D01*
X44068Y-15971D01*
X44127Y-15995D01*
X44127Y-15995D01*
X44186Y-16019D01*
X44249Y-16019D01*
X44250Y-16020D01*
X44250Y-16019D01*
X44313Y-16020D01*
X44372Y-15995D01*
X44372Y-15995D01*
X44372Y-15995D01*
X44431Y-15971D01*
X44476Y-15926D01*
X44521Y-15881D01*
X44545Y-15822D01*
X44545Y-15822D01*
X44545Y-15822D01*
X44569Y-15763D01*
X44569Y-15700D01*
X44570Y-15700D01*
X44570Y-15699D01*
X44570Y-15636D01*
X44570Y-15636D01*
X44570Y-15577D01*
X44588Y-15559D01*
X44609Y-15507D01*
X44610Y-15452D01*
X44610Y-29690D01*
X43470Y-29690D01*
X43470Y-12336D01*
X43445Y-12277D01*
X43445Y-12277D01*
X43421Y-12218D01*
X43376Y-12173D01*
X43331Y-12128D01*
X43272Y-12104D01*
X43272Y-12104D01*
X43213Y-12080D01*
X43150Y-12080D01*
X43150Y-12080D01*
X43149Y-12080D01*
X43086Y-12079D01*
X43086Y-12080D01*
X42840Y-12080D01*
X42717Y-12104D01*
X42679Y-12129D01*
X42502Y-12129D01*
X42450Y-12151D01*
X42411Y-12190D01*
X42390Y-12242D01*
X42389Y-12297D01*
X42389Y-12737D01*
X42395Y-12749D01*
X42390Y-12762D01*
X42389Y-12817D01*
X42389Y-13257D01*
X42411Y-13309D01*
X42430Y-13327D01*
X42430Y-13450D01*
X42430Y-13450D01*
X42429Y-13513D01*
X42454Y-13572D01*
X42454Y-13572D01*
X42478Y-13631D01*
X42523Y-13676D01*
X42568Y-13721D01*
X42627Y-13745D01*
X42627Y-13745D01*
X42686Y-13769D01*
X42749Y-13769D01*
X42750Y-13770D01*
X42750Y-13769D01*
X42813Y-13770D01*
X42872Y-13745D01*
X42872Y-13745D01*
X42872Y-13745D01*
X42931Y-13721D01*
X42976Y-13676D01*
X43021Y-13631D01*
X43045Y-13572D01*
X43045Y-13572D01*
X43045Y-13572D01*
X43069Y-13513D01*
X43069Y-13450D01*
X43070Y-13450D01*
X43070Y-13449D01*
X43070Y-13386D01*
X43070Y-13386D01*
X43070Y-13327D01*
X43088Y-13309D01*
X43109Y-13257D01*
X43110Y-13202D01*
X43110Y-12762D01*
X43104Y-12750D01*
X43109Y-12737D01*
X43109Y-12720D01*
X43150Y-12720D01*
X43150Y-12719D01*
X43213Y-12720D01*
X43272Y-12695D01*
X43272Y-12695D01*
X43272Y-12695D01*
X43331Y-12671D01*
X43376Y-12626D01*
X43421Y-12581D01*
X43445Y-12522D01*
X43445Y-12522D01*
X43445Y-12522D01*
X43469Y-12463D01*
X43469Y-12400D01*
X43470Y-12400D01*
X43469Y-12399D01*
X43470Y-12336D01*
X43470Y-29690D01*
X42973Y-29690D01*
X42973Y-29158D01*
X42973Y-28518D01*
X42973Y-27288D01*
X42973Y-26746D01*
X42973Y-25418D01*
X42973Y-24876D01*
X42544Y-24447D01*
X42110Y-24447D01*
X42110Y-13452D01*
X42110Y-13012D01*
X42104Y-13000D01*
X42109Y-12987D01*
X42110Y-12932D01*
X42110Y-12492D01*
X42088Y-12440D01*
X42070Y-12422D01*
X42070Y-12300D01*
X42069Y-12299D01*
X42070Y-12236D01*
X42045Y-12177D01*
X42045Y-12177D01*
X42021Y-12118D01*
X41976Y-12073D01*
X41931Y-12028D01*
X41872Y-12004D01*
X41872Y-12004D01*
X41813Y-11980D01*
X41750Y-11980D01*
X41750Y-11980D01*
X41749Y-11980D01*
X41686Y-11979D01*
X41627Y-12004D01*
X41627Y-12004D01*
X41627Y-12004D01*
X41568Y-12028D01*
X41478Y-12118D01*
X41454Y-12177D01*
X41454Y-12177D01*
X41454Y-12177D01*
X41430Y-12236D01*
X41430Y-12299D01*
X41430Y-12300D01*
X41430Y-12300D01*
X41429Y-12363D01*
X41430Y-12363D01*
X41430Y-12422D01*
X41411Y-12440D01*
X41390Y-12492D01*
X41389Y-12547D01*
X41389Y-12987D01*
X41395Y-12999D01*
X41390Y-13012D01*
X41389Y-13067D01*
X41389Y-13507D01*
X41411Y-13559D01*
X41430Y-13577D01*
X41430Y-13700D01*
X41430Y-13700D01*
X41429Y-13763D01*
X41454Y-13822D01*
X41454Y-13822D01*
X41478Y-13881D01*
X41523Y-13926D01*
X41568Y-13971D01*
X41627Y-13995D01*
X41627Y-13995D01*
X41686Y-14019D01*
X41749Y-14019D01*
X41750Y-14020D01*
X41750Y-14019D01*
X41813Y-14020D01*
X41872Y-13995D01*
X41872Y-13995D01*
X41872Y-13995D01*
X41931Y-13971D01*
X41976Y-13926D01*
X42021Y-13881D01*
X42045Y-13822D01*
X42045Y-13822D01*
X42045Y-13822D01*
X42069Y-13763D01*
X42069Y-13700D01*
X42070Y-13700D01*
X42070Y-13699D01*
X42070Y-13636D01*
X42070Y-13636D01*
X42070Y-13577D01*
X42088Y-13559D01*
X42109Y-13507D01*
X42110Y-13452D01*
X42110Y-24447D01*
X41970Y-24447D01*
X41970Y-20786D01*
X41921Y-20668D01*
X41831Y-20578D01*
X41713Y-20530D01*
X41586Y-20529D01*
X41468Y-20578D01*
X41378Y-20668D01*
X41330Y-20786D01*
X41330Y-20806D01*
X41316Y-20816D01*
X41247Y-20885D01*
X41127Y-20884D01*
X40993Y-20940D01*
X40890Y-21042D01*
X40835Y-21177D01*
X40834Y-21322D01*
X40890Y-21456D01*
X40940Y-21506D01*
X40940Y-22093D01*
X40890Y-22142D01*
X40835Y-22277D01*
X40834Y-22422D01*
X40890Y-22556D01*
X40992Y-22659D01*
X41090Y-22699D01*
X41090Y-22707D01*
X41028Y-22768D01*
X40980Y-22886D01*
X40979Y-23013D01*
X41028Y-23131D01*
X41118Y-23221D01*
X41236Y-23269D01*
X41363Y-23270D01*
X41481Y-23221D01*
X41571Y-23131D01*
X41619Y-23013D01*
X41620Y-22886D01*
X41594Y-22825D01*
X41610Y-22750D01*
X41610Y-22550D01*
X41590Y-22450D01*
X41564Y-22412D01*
X41564Y-22412D01*
X41565Y-22277D01*
X41509Y-22143D01*
X41460Y-22093D01*
X41460Y-21506D01*
X41509Y-21457D01*
X41564Y-21322D01*
X41564Y-21302D01*
X41683Y-21183D01*
X41693Y-21170D01*
X41713Y-21170D01*
X41831Y-21121D01*
X41921Y-21031D01*
X41969Y-20913D01*
X41970Y-20786D01*
X41970Y-24447D01*
X41904Y-24447D01*
X41475Y-24876D01*
X41475Y-25418D01*
X41904Y-25847D01*
X42544Y-25847D01*
X42973Y-25418D01*
X42973Y-26746D01*
X42544Y-26317D01*
X41904Y-26317D01*
X41573Y-26648D01*
X41573Y-27288D01*
X42002Y-27717D01*
X42544Y-27717D01*
X42973Y-27288D01*
X42973Y-28518D01*
X42642Y-28188D01*
X41793Y-28188D01*
X41573Y-28627D01*
X41573Y-29262D01*
X42007Y-29587D01*
X42544Y-29587D01*
X42973Y-29158D01*
X42973Y-29690D01*
X40910Y-29690D01*
X40910Y-27260D01*
X40910Y-25540D01*
X40560Y-25540D01*
X40560Y-11560D01*
X40560Y-10440D01*
X38440Y-10440D01*
X38440Y-11560D01*
X40560Y-11560D01*
X40560Y-25540D01*
X40550Y-25540D01*
X40550Y-14292D01*
X40550Y-13852D01*
X40528Y-13800D01*
X40489Y-13761D01*
X40437Y-13740D01*
X40382Y-13739D01*
X39942Y-13739D01*
X39890Y-13761D01*
X39872Y-13780D01*
X39800Y-13780D01*
X39799Y-13780D01*
X39736Y-13779D01*
X39677Y-13804D01*
X39677Y-13804D01*
X39677Y-13804D01*
X39618Y-13828D01*
X39528Y-13918D01*
X39504Y-13977D01*
X39504Y-13977D01*
X39504Y-13977D01*
X39480Y-14036D01*
X39480Y-14099D01*
X39480Y-14100D01*
X39480Y-14100D01*
X39479Y-14163D01*
X39504Y-14222D01*
X39504Y-14222D01*
X39528Y-14281D01*
X39573Y-14326D01*
X39618Y-14371D01*
X39677Y-14395D01*
X39677Y-14395D01*
X39736Y-14419D01*
X39799Y-14419D01*
X39800Y-14420D01*
X39800Y-14420D01*
X39863Y-14420D01*
X39863Y-14420D01*
X39872Y-14420D01*
X39890Y-14438D01*
X39942Y-14459D01*
X39997Y-14460D01*
X40437Y-14460D01*
X40489Y-14438D01*
X40528Y-14399D01*
X40549Y-14347D01*
X40550Y-14292D01*
X40550Y-25540D01*
X39990Y-25540D01*
X39990Y-27260D01*
X40910Y-27260D01*
X40910Y-29690D01*
X38520Y-29690D01*
X38520Y-22116D01*
X38456Y-21962D01*
X38338Y-21844D01*
X38183Y-21780D01*
X38016Y-21779D01*
X37862Y-21843D01*
X37744Y-21961D01*
X37680Y-22116D01*
X37679Y-22283D01*
X37743Y-22437D01*
X37861Y-22555D01*
X38016Y-22619D01*
X38183Y-22620D01*
X38337Y-22556D01*
X38455Y-22438D01*
X38519Y-22283D01*
X38520Y-22116D01*
X38520Y-29690D01*
X28460Y-29690D01*
X28460Y-12860D01*
X28460Y-11140D01*
X27540Y-11140D01*
X27540Y-12860D01*
X28460Y-12860D01*
X28460Y-29690D01*
X25478Y-29690D01*
X25828Y-29340D01*
X26250Y-29340D01*
X26400Y-29340D01*
X26525Y-29340D01*
X26600Y-29390D01*
X26700Y-29410D01*
X26900Y-29410D01*
X26999Y-29390D01*
X27083Y-29333D01*
X27102Y-29315D01*
X27172Y-29315D01*
X27306Y-29259D01*
X27356Y-29210D01*
X27450Y-29210D01*
X27456Y-29208D01*
X27518Y-29271D01*
X27636Y-29319D01*
X27763Y-29320D01*
X27881Y-29271D01*
X27971Y-29181D01*
X28019Y-29063D01*
X28020Y-28936D01*
X27971Y-28818D01*
X27881Y-28728D01*
X27763Y-28680D01*
X27636Y-28679D01*
X27555Y-28713D01*
X27549Y-28709D01*
X27450Y-28690D01*
X27356Y-28690D01*
X27307Y-28640D01*
X27204Y-28598D01*
X27271Y-28531D01*
X27319Y-28413D01*
X27320Y-28286D01*
X27271Y-28168D01*
X27181Y-28078D01*
X27063Y-28030D01*
X26936Y-28029D01*
X26818Y-28078D01*
X26728Y-28168D01*
X26712Y-28207D01*
X26700Y-28209D01*
X26685Y-28219D01*
X26657Y-28190D01*
X26522Y-28135D01*
X26377Y-28134D01*
X26243Y-28190D01*
X26140Y-28292D01*
X26085Y-28427D01*
X26084Y-28572D01*
X26092Y-28590D01*
X26066Y-28616D01*
X26009Y-28700D01*
X25993Y-28779D01*
X25850Y-28779D01*
X25675Y-28779D01*
X25602Y-28794D01*
X25541Y-28835D01*
X25541Y-28835D01*
X25046Y-29329D01*
X24053Y-29329D01*
X23088Y-28365D01*
X23027Y-28324D01*
X22954Y-28310D01*
X22324Y-28310D01*
X22249Y-28259D01*
X22150Y-28240D01*
X21906Y-28240D01*
X21857Y-28190D01*
X21722Y-28135D01*
X21577Y-28134D01*
X21443Y-28190D01*
X21393Y-28240D01*
X21300Y-28240D01*
X21224Y-28255D01*
X21163Y-28230D01*
X21036Y-28229D01*
X20918Y-28278D01*
X20828Y-28368D01*
X20780Y-28486D01*
X20779Y-28613D01*
X20828Y-28731D01*
X20918Y-28821D01*
X21036Y-28869D01*
X21163Y-28870D01*
X21281Y-28821D01*
X21342Y-28760D01*
X21393Y-28760D01*
X21442Y-28809D01*
X21577Y-28864D01*
X21722Y-28865D01*
X21856Y-28809D01*
X21906Y-28760D01*
X22150Y-28760D01*
X22249Y-28740D01*
X22324Y-28690D01*
X22875Y-28690D01*
X23032Y-28846D01*
X23000Y-28840D01*
X22756Y-28840D01*
X22707Y-28790D01*
X22572Y-28735D01*
X22427Y-28734D01*
X22293Y-28790D01*
X22243Y-28840D01*
X22150Y-28840D01*
X22050Y-28859D01*
X22044Y-28863D01*
X21963Y-28830D01*
X21836Y-28829D01*
X21718Y-28878D01*
X21628Y-28968D01*
X21580Y-29086D01*
X21579Y-29213D01*
X21628Y-29331D01*
X21718Y-29421D01*
X21836Y-29469D01*
X21963Y-29470D01*
X22081Y-29421D01*
X22143Y-29358D01*
X22150Y-29360D01*
X22243Y-29360D01*
X22292Y-29409D01*
X22427Y-29464D01*
X22572Y-29465D01*
X22706Y-29409D01*
X22756Y-29360D01*
X23000Y-29360D01*
X23099Y-29340D01*
X23174Y-29290D01*
X23221Y-29290D01*
X23621Y-29690D01*
X20710Y-29690D01*
X20710Y-18110D01*
X20710Y-16390D01*
X20310Y-16390D01*
X20310Y-12024D01*
X20310Y-11475D01*
X20024Y-11190D01*
X19475Y-11190D01*
X19190Y-11475D01*
X19190Y-12024D01*
X19475Y-12310D01*
X20024Y-12310D01*
X20310Y-12024D01*
X20310Y-16390D01*
X19790Y-16390D01*
X19790Y-18110D01*
X20710Y-18110D01*
X20710Y-29690D01*
X18560Y-29690D01*
X18560Y-15010D01*
X18560Y-13290D01*
X17640Y-13290D01*
X17640Y-15010D01*
X18560Y-15010D01*
X18560Y-29690D01*
X17810Y-29690D01*
X17810Y-21160D01*
X17810Y-19440D01*
X16890Y-19440D01*
X16890Y-20990D01*
X16810Y-20990D01*
X16810Y-17674D01*
X16810Y-17125D01*
X16524Y-16840D01*
X15975Y-16840D01*
X15690Y-17125D01*
X15690Y-17674D01*
X15975Y-17960D01*
X16524Y-17960D01*
X16810Y-17674D01*
X16810Y-20990D01*
X15990Y-20990D01*
X15990Y-22010D01*
X17060Y-22010D01*
X17060Y-21160D01*
X17810Y-21160D01*
X17810Y-29690D01*
X14440Y-29690D01*
X14440Y-14512D01*
X14373Y-14351D01*
X14249Y-14227D01*
X14087Y-14160D01*
X13912Y-14159D01*
X13751Y-14226D01*
X13627Y-14350D01*
X13560Y-14512D01*
X13559Y-14687D01*
X13626Y-14848D01*
X13750Y-14972D01*
X13912Y-15039D01*
X14087Y-15040D01*
X14248Y-14973D01*
X14372Y-14849D01*
X14439Y-14687D01*
X14440Y-14512D01*
X14440Y-29690D01*
X14310Y-29690D01*
X14310Y-18560D01*
X14310Y-16440D01*
X13440Y-16440D01*
X13440Y-14512D01*
X13373Y-14351D01*
X13249Y-14227D01*
X13199Y-14206D01*
X13248Y-14186D01*
X13372Y-14062D01*
X13439Y-13900D01*
X13440Y-13725D01*
X13373Y-13564D01*
X13249Y-13440D01*
X13087Y-13373D01*
X12912Y-13372D01*
X12751Y-13439D01*
X12627Y-13563D01*
X12560Y-13725D01*
X12559Y-13900D01*
X12626Y-14061D01*
X12750Y-14185D01*
X12800Y-14206D01*
X12751Y-14226D01*
X12627Y-14350D01*
X12560Y-14512D01*
X12559Y-14687D01*
X12626Y-14848D01*
X12750Y-14972D01*
X12912Y-15039D01*
X13087Y-15040D01*
X13248Y-14973D01*
X13372Y-14849D01*
X13439Y-14687D01*
X13440Y-14512D01*
X13440Y-16440D01*
X11190Y-16440D01*
X11190Y-18560D01*
X14310Y-18560D01*
X14310Y-29690D01*
X13565Y-29690D01*
X13565Y-22777D01*
X13509Y-22643D01*
X13407Y-22540D01*
X13272Y-22485D01*
X13127Y-22484D01*
X13073Y-22507D01*
X13058Y-22491D01*
X12939Y-22412D01*
X12800Y-22385D01*
X12600Y-22385D01*
X12460Y-22412D01*
X12341Y-22491D01*
X12262Y-22610D01*
X12235Y-22750D01*
X12262Y-22889D01*
X12341Y-23008D01*
X12460Y-23087D01*
X12600Y-23115D01*
X12635Y-23115D01*
X12635Y-23198D01*
X12548Y-23284D01*
X12477Y-23284D01*
X12410Y-23312D01*
X12410Y-23312D01*
X12410Y-23312D01*
X12343Y-23340D01*
X12291Y-23391D01*
X12291Y-23391D01*
X12291Y-23391D01*
X12240Y-23442D01*
X12212Y-23510D01*
X12212Y-23510D01*
X12212Y-23510D01*
X12185Y-23577D01*
X12185Y-23649D01*
X12185Y-23650D01*
X12185Y-23650D01*
X12184Y-23722D01*
X12212Y-23789D01*
X12212Y-23789D01*
X12212Y-23789D01*
X12240Y-23856D01*
X12291Y-23908D01*
X12291Y-23908D01*
X12291Y-23908D01*
X12342Y-23959D01*
X12410Y-23987D01*
X12410Y-23987D01*
X12410Y-23987D01*
X12477Y-24014D01*
X12549Y-24014D01*
X12550Y-24015D01*
X12550Y-24015D01*
X12622Y-24015D01*
X12622Y-24015D01*
X12700Y-24015D01*
X12839Y-23987D01*
X12958Y-23908D01*
X12987Y-23878D01*
X13086Y-23919D01*
X13213Y-23920D01*
X13331Y-23871D01*
X13421Y-23781D01*
X13469Y-23663D01*
X13470Y-23536D01*
X13421Y-23418D01*
X13400Y-23397D01*
X13400Y-23162D01*
X13406Y-23159D01*
X13509Y-23057D01*
X13564Y-22922D01*
X13565Y-22777D01*
X13565Y-29690D01*
X12340Y-29690D01*
X12340Y-26383D01*
X12250Y-26166D01*
X12084Y-26000D01*
X11867Y-25910D01*
X11633Y-25909D01*
X11416Y-25999D01*
X11250Y-26165D01*
X11160Y-26382D01*
X11159Y-26616D01*
X11249Y-26833D01*
X11415Y-26999D01*
X11632Y-27089D01*
X11866Y-27090D01*
X12083Y-27000D01*
X12249Y-26834D01*
X12339Y-26617D01*
X12340Y-26383D01*
X12340Y-29690D01*
X10310Y-29690D01*
X10310Y-10310D01*
X47690Y-10310D01*
X47690Y-29690D01*
X47690Y-29690D01*
G37*
G54D35*
X47690Y-29690D02*
X46840Y-29690D01*
X46840Y-19383D01*
X46840Y-12383D01*
X46750Y-12166D01*
X46584Y-12000D01*
X46367Y-11910D01*
X46133Y-11909D01*
X45916Y-11999D01*
X45750Y-12165D01*
X45660Y-12382D01*
X45659Y-12616D01*
X45749Y-12833D01*
X45915Y-12999D01*
X46132Y-13089D01*
X46366Y-13090D01*
X46583Y-13000D01*
X46749Y-12834D01*
X46839Y-12617D01*
X46840Y-12383D01*
X46840Y-19383D01*
X46810Y-19310D01*
X46810Y-16460D01*
X46810Y-15540D01*
X45990Y-15540D01*
X45990Y-14750D01*
X45967Y-14634D01*
X45967Y-14515D01*
X45945Y-14464D01*
X45906Y-14424D01*
X45854Y-14403D01*
X45799Y-14403D01*
X45697Y-14403D01*
X45630Y-14390D01*
X45362Y-14390D01*
X45349Y-14377D01*
X45187Y-14310D01*
X45012Y-14309D01*
X44851Y-14376D01*
X44727Y-14500D01*
X44660Y-14662D01*
X44659Y-14837D01*
X44726Y-14998D01*
X44850Y-15122D01*
X45012Y-15189D01*
X45187Y-15190D01*
X45348Y-15123D01*
X45362Y-15110D01*
X45630Y-15110D01*
X45697Y-15096D01*
X45854Y-15096D01*
X45906Y-15075D01*
X45945Y-15035D01*
X45966Y-14984D01*
X45967Y-14928D01*
X45967Y-14865D01*
X45990Y-14750D01*
X45990Y-15540D01*
X45890Y-15540D01*
X45890Y-16460D01*
X46810Y-16460D01*
X46810Y-19310D01*
X46750Y-19166D01*
X46584Y-19000D01*
X46367Y-18910D01*
X46133Y-18909D01*
X45916Y-18999D01*
X45750Y-19165D01*
X45660Y-19382D01*
X45659Y-19616D01*
X45749Y-19833D01*
X45915Y-19999D01*
X46132Y-20089D01*
X46366Y-20090D01*
X46583Y-20000D01*
X46749Y-19834D01*
X46839Y-19617D01*
X46840Y-19383D01*
X46840Y-29690D01*
X46710Y-29690D01*
X46710Y-22960D01*
X46710Y-22040D01*
X44990Y-22040D01*
X44990Y-22960D01*
X46710Y-22960D01*
X46710Y-29690D01*
X44610Y-29690D01*
X44610Y-15452D01*
X44610Y-15012D01*
X44604Y-15000D01*
X44609Y-14987D01*
X44610Y-14932D01*
X44610Y-14492D01*
X44588Y-14440D01*
X44570Y-14422D01*
X44570Y-14400D01*
X44569Y-14399D01*
X44570Y-14336D01*
X44545Y-14277D01*
X44545Y-14277D01*
X44521Y-14218D01*
X44476Y-14173D01*
X44431Y-14128D01*
X44372Y-14104D01*
X44372Y-14104D01*
X44313Y-14080D01*
X44250Y-14080D01*
X44250Y-14080D01*
X44249Y-14080D01*
X44186Y-14079D01*
X44127Y-14104D01*
X44127Y-14104D01*
X44127Y-14104D01*
X44068Y-14128D01*
X43978Y-14218D01*
X43954Y-14277D01*
X43954Y-14277D01*
X43954Y-14277D01*
X43930Y-14336D01*
X43930Y-14399D01*
X43930Y-14400D01*
X43930Y-14400D01*
X43929Y-14422D01*
X43911Y-14440D01*
X43890Y-14492D01*
X43889Y-14547D01*
X43889Y-14987D01*
X43895Y-14999D01*
X43890Y-15012D01*
X43889Y-15067D01*
X43889Y-15507D01*
X43911Y-15559D01*
X43930Y-15577D01*
X43930Y-15700D01*
X43930Y-15700D01*
X43929Y-15763D01*
X43954Y-15822D01*
X43954Y-15822D01*
X43978Y-15881D01*
X44023Y-15926D01*
X44068Y-15971D01*
X44127Y-15995D01*
X44127Y-15995D01*
X44186Y-16019D01*
X44249Y-16019D01*
X44250Y-16020D01*
X44250Y-16019D01*
X44313Y-16020D01*
X44372Y-15995D01*
X44372Y-15995D01*
X44372Y-15995D01*
X44431Y-15971D01*
X44476Y-15926D01*
X44521Y-15881D01*
X44545Y-15822D01*
X44545Y-15822D01*
X44545Y-15822D01*
X44569Y-15763D01*
X44569Y-15700D01*
X44570Y-15700D01*
X44570Y-15699D01*
X44570Y-15636D01*
X44570Y-15636D01*
X44570Y-15577D01*
X44588Y-15559D01*
X44609Y-15507D01*
X44610Y-15452D01*
X44610Y-29690D01*
X43470Y-29690D01*
X43470Y-12336D01*
X43445Y-12277D01*
X43445Y-12277D01*
X43421Y-12218D01*
X43376Y-12173D01*
X43331Y-12128D01*
X43272Y-12104D01*
X43272Y-12104D01*
X43213Y-12080D01*
X43150Y-12080D01*
X43150Y-12080D01*
X43149Y-12080D01*
X43086Y-12079D01*
X43086Y-12080D01*
X42840Y-12080D01*
X42717Y-12104D01*
X42679Y-12129D01*
X42502Y-12129D01*
X42450Y-12151D01*
X42411Y-12190D01*
X42390Y-12242D01*
X42389Y-12297D01*
X42389Y-12737D01*
X42395Y-12749D01*
X42390Y-12762D01*
X42389Y-12817D01*
X42389Y-13257D01*
X42411Y-13309D01*
X42430Y-13327D01*
X42430Y-13450D01*
X42430Y-13450D01*
X42429Y-13513D01*
X42454Y-13572D01*
X42454Y-13572D01*
X42478Y-13631D01*
X42523Y-13676D01*
X42568Y-13721D01*
X42627Y-13745D01*
X42627Y-13745D01*
X42686Y-13769D01*
X42749Y-13769D01*
X42750Y-13770D01*
X42750Y-13769D01*
X42813Y-13770D01*
X42872Y-13745D01*
X42872Y-13745D01*
X42872Y-13745D01*
X42931Y-13721D01*
X42976Y-13676D01*
X43021Y-13631D01*
X43045Y-13572D01*
X43045Y-13572D01*
X43045Y-13572D01*
X43069Y-13513D01*
X43069Y-13450D01*
X43070Y-13450D01*
X43070Y-13449D01*
X43070Y-13386D01*
X43070Y-13386D01*
X43070Y-13327D01*
X43088Y-13309D01*
X43109Y-13257D01*
X43110Y-13202D01*
X43110Y-12762D01*
X43104Y-12750D01*
X43109Y-12737D01*
X43109Y-12720D01*
X43150Y-12720D01*
X43150Y-12719D01*
X43213Y-12720D01*
X43272Y-12695D01*
X43272Y-12695D01*
X43272Y-12695D01*
X43331Y-12671D01*
X43376Y-12626D01*
X43421Y-12581D01*
X43445Y-12522D01*
X43445Y-12522D01*
X43445Y-12522D01*
X43469Y-12463D01*
X43469Y-12400D01*
X43470Y-12400D01*
X43469Y-12399D01*
X43470Y-12336D01*
X43470Y-29690D01*
X42973Y-29690D01*
X42973Y-29158D01*
X42973Y-28518D01*
X42973Y-27288D01*
X42973Y-26746D01*
X42973Y-25418D01*
X42973Y-24876D01*
X42544Y-24447D01*
X42110Y-24447D01*
X42110Y-13452D01*
X42110Y-13012D01*
X42104Y-13000D01*
X42109Y-12987D01*
X42110Y-12932D01*
X42110Y-12492D01*
X42088Y-12440D01*
X42070Y-12422D01*
X42070Y-12300D01*
X42069Y-12299D01*
X42070Y-12236D01*
X42045Y-12177D01*
X42045Y-12177D01*
X42021Y-12118D01*
X41976Y-12073D01*
X41931Y-12028D01*
X41872Y-12004D01*
X41872Y-12004D01*
X41813Y-11980D01*
X41750Y-11980D01*
X41750Y-11980D01*
X41749Y-11980D01*
X41686Y-11979D01*
X41627Y-12004D01*
X41627Y-12004D01*
X41627Y-12004D01*
X41568Y-12028D01*
X41478Y-12118D01*
X41454Y-12177D01*
X41454Y-12177D01*
X41454Y-12177D01*
X41430Y-12236D01*
X41430Y-12299D01*
X41430Y-12300D01*
X41430Y-12300D01*
X41429Y-12363D01*
X41430Y-12363D01*
X41430Y-12422D01*
X41411Y-12440D01*
X41390Y-12492D01*
X41389Y-12547D01*
X41389Y-12987D01*
X41395Y-12999D01*
X41390Y-13012D01*
X41389Y-13067D01*
X41389Y-13507D01*
X41411Y-13559D01*
X41430Y-13577D01*
X41430Y-13700D01*
X41430Y-13700D01*
X41429Y-13763D01*
X41454Y-13822D01*
X41454Y-13822D01*
X41478Y-13881D01*
X41523Y-13926D01*
X41568Y-13971D01*
X41627Y-13995D01*
X41627Y-13995D01*
X41686Y-14019D01*
X41749Y-14019D01*
X41750Y-14020D01*
X41750Y-14019D01*
X41813Y-14020D01*
X41872Y-13995D01*
X41872Y-13995D01*
X41872Y-13995D01*
X41931Y-13971D01*
X41976Y-13926D01*
X42021Y-13881D01*
X42045Y-13822D01*
X42045Y-13822D01*
X42045Y-13822D01*
X42069Y-13763D01*
X42069Y-13700D01*
X42070Y-13700D01*
X42070Y-13699D01*
X42070Y-13636D01*
X42070Y-13636D01*
X42070Y-13577D01*
X42088Y-13559D01*
X42109Y-13507D01*
X42110Y-13452D01*
X42110Y-24447D01*
X41970Y-24447D01*
X41970Y-20786D01*
X41921Y-20668D01*
X41831Y-20578D01*
X41713Y-20530D01*
X41586Y-20529D01*
X41468Y-20578D01*
X41378Y-20668D01*
X41330Y-20786D01*
X41330Y-20806D01*
X41316Y-20816D01*
X41247Y-20885D01*
X41127Y-20884D01*
X40993Y-20940D01*
X40890Y-21042D01*
X40835Y-21177D01*
X40834Y-21322D01*
X40890Y-21456D01*
X40940Y-21506D01*
X40940Y-22093D01*
X40890Y-22142D01*
X40835Y-22277D01*
X40834Y-22422D01*
X40890Y-22556D01*
X40992Y-22659D01*
X41090Y-22699D01*
X41090Y-22707D01*
X41028Y-22768D01*
X40980Y-22886D01*
X40979Y-23013D01*
X41028Y-23131D01*
X41118Y-23221D01*
X41236Y-23269D01*
X41363Y-23270D01*
X41481Y-23221D01*
X41571Y-23131D01*
X41619Y-23013D01*
X41620Y-22886D01*
X41594Y-22825D01*
X41610Y-22750D01*
X41610Y-22550D01*
X41590Y-22450D01*
X41564Y-22412D01*
X41564Y-22412D01*
X41565Y-22277D01*
X41509Y-22143D01*
X41460Y-22093D01*
X41460Y-21506D01*
X41509Y-21457D01*
X41564Y-21322D01*
X41564Y-21302D01*
X41683Y-21183D01*
X41693Y-21170D01*
X41713Y-21170D01*
X41831Y-21121D01*
X41921Y-21031D01*
X41969Y-20913D01*
X41970Y-20786D01*
X41970Y-24447D01*
X41904Y-24447D01*
X41475Y-24876D01*
X41475Y-25418D01*
X41904Y-25847D01*
X42544Y-25847D01*
X42973Y-25418D01*
X42973Y-26746D01*
X42544Y-26317D01*
X41904Y-26317D01*
X41573Y-26648D01*
X41573Y-27288D01*
X42002Y-27717D01*
X42544Y-27717D01*
X42973Y-27288D01*
X42973Y-28518D01*
X42642Y-28188D01*
X41793Y-28188D01*
X41573Y-28627D01*
X41573Y-29262D01*
X42007Y-29587D01*
X42544Y-29587D01*
X42973Y-29158D01*
X42973Y-29690D01*
X40910Y-29690D01*
X40910Y-27260D01*
X40910Y-25540D01*
X40560Y-25540D01*
X40560Y-11560D01*
X40560Y-10440D01*
X38440Y-10440D01*
X38440Y-11560D01*
X40560Y-11560D01*
X40560Y-25540D01*
X40550Y-25540D01*
X40550Y-14292D01*
X40550Y-13852D01*
X40528Y-13800D01*
X40489Y-13761D01*
X40437Y-13740D01*
X40382Y-13739D01*
X39942Y-13739D01*
X39890Y-13761D01*
X39872Y-13780D01*
X39800Y-13780D01*
X39799Y-13780D01*
X39736Y-13779D01*
X39677Y-13804D01*
X39677Y-13804D01*
X39677Y-13804D01*
X39618Y-13828D01*
X39528Y-13918D01*
X39504Y-13977D01*
X39504Y-13977D01*
X39504Y-13977D01*
X39480Y-14036D01*
X39480Y-14099D01*
X39480Y-14100D01*
X39480Y-14100D01*
X39479Y-14163D01*
X39504Y-14222D01*
X39504Y-14222D01*
X39528Y-14281D01*
X39573Y-14326D01*
X39618Y-14371D01*
X39677Y-14395D01*
X39677Y-14395D01*
X39736Y-14419D01*
X39799Y-14419D01*
X39800Y-14420D01*
X39800Y-14420D01*
X39863Y-14420D01*
X39863Y-14420D01*
X39872Y-14420D01*
X39890Y-14438D01*
X39942Y-14459D01*
X39997Y-14460D01*
X40437Y-14460D01*
X40489Y-14438D01*
X40528Y-14399D01*
X40549Y-14347D01*
X40550Y-14292D01*
X40550Y-25540D01*
X39990Y-25540D01*
X39990Y-27260D01*
X40910Y-27260D01*
X40910Y-29690D01*
X38520Y-29690D01*
X38520Y-22116D01*
X38456Y-21962D01*
X38338Y-21844D01*
X38183Y-21780D01*
X38016Y-21779D01*
X37862Y-21843D01*
X37744Y-21961D01*
X37680Y-22116D01*
X37679Y-22283D01*
X37743Y-22437D01*
X37861Y-22555D01*
X38016Y-22619D01*
X38183Y-22620D01*
X38337Y-22556D01*
X38455Y-22438D01*
X38519Y-22283D01*
X38520Y-22116D01*
X38520Y-29690D01*
X28460Y-29690D01*
X28460Y-12860D01*
X28460Y-11140D01*
X27540Y-11140D01*
X27540Y-12860D01*
X28460Y-12860D01*
X28460Y-29690D01*
X25478Y-29690D01*
X25828Y-29340D01*
X26250Y-29340D01*
X26400Y-29340D01*
X26525Y-29340D01*
X26600Y-29390D01*
X26700Y-29410D01*
X26900Y-29410D01*
X26999Y-29390D01*
X27083Y-29333D01*
X27102Y-29315D01*
X27172Y-29315D01*
X27306Y-29259D01*
X27356Y-29210D01*
X27450Y-29210D01*
X27456Y-29208D01*
X27518Y-29271D01*
X27636Y-29319D01*
X27763Y-29320D01*
X27881Y-29271D01*
X27971Y-29181D01*
X28019Y-29063D01*
X28020Y-28936D01*
X27971Y-28818D01*
X27881Y-28728D01*
X27763Y-28680D01*
X27636Y-28679D01*
X27555Y-28713D01*
X27549Y-28709D01*
X27450Y-28690D01*
X27356Y-28690D01*
X27307Y-28640D01*
X27204Y-28598D01*
X27271Y-28531D01*
X27319Y-28413D01*
X27320Y-28286D01*
X27271Y-28168D01*
X27181Y-28078D01*
X27063Y-28030D01*
X26936Y-28029D01*
X26818Y-28078D01*
X26728Y-28168D01*
X26712Y-28207D01*
X26700Y-28209D01*
X26685Y-28219D01*
X26657Y-28190D01*
X26522Y-28135D01*
X26377Y-28134D01*
X26243Y-28190D01*
X26140Y-28292D01*
X26085Y-28427D01*
X26084Y-28572D01*
X26092Y-28590D01*
X26066Y-28616D01*
X26009Y-28700D01*
X25993Y-28779D01*
X25850Y-28779D01*
X25675Y-28779D01*
X25602Y-28794D01*
X25541Y-28835D01*
X25541Y-28835D01*
X25046Y-29329D01*
X24053Y-29329D01*
X23088Y-28365D01*
X23027Y-28324D01*
X22954Y-28310D01*
X22324Y-28310D01*
X22249Y-28259D01*
X22150Y-28240D01*
X21906Y-28240D01*
X21857Y-28190D01*
X21722Y-28135D01*
X21577Y-28134D01*
X21443Y-28190D01*
X21393Y-28240D01*
X21300Y-28240D01*
X21224Y-28255D01*
X21163Y-28230D01*
X21036Y-28229D01*
X20918Y-28278D01*
X20828Y-28368D01*
X20780Y-28486D01*
X20779Y-28613D01*
X20828Y-28731D01*
X20918Y-28821D01*
X21036Y-28869D01*
X21163Y-28870D01*
X21281Y-28821D01*
X21342Y-28760D01*
X21393Y-28760D01*
X21442Y-28809D01*
X21577Y-28864D01*
X21722Y-28865D01*
X21856Y-28809D01*
X21906Y-28760D01*
X22150Y-28760D01*
X22249Y-28740D01*
X22324Y-28690D01*
X22875Y-28690D01*
X23032Y-28846D01*
X23000Y-28840D01*
X22756Y-28840D01*
X22707Y-28790D01*
X22572Y-28735D01*
X22427Y-28734D01*
X22293Y-28790D01*
X22243Y-28840D01*
X22150Y-28840D01*
X22050Y-28859D01*
X22044Y-28863D01*
X21963Y-28830D01*
X21836Y-28829D01*
X21718Y-28878D01*
X21628Y-28968D01*
X21580Y-29086D01*
X21579Y-29213D01*
X21628Y-29331D01*
X21718Y-29421D01*
X21836Y-29469D01*
X21963Y-29470D01*
X22081Y-29421D01*
X22143Y-29358D01*
X22150Y-29360D01*
X22243Y-29360D01*
X22292Y-29409D01*
X22427Y-29464D01*
X22572Y-29465D01*
X22706Y-29409D01*
X22756Y-29360D01*
X23000Y-29360D01*
X23099Y-29340D01*
X23174Y-29290D01*
X23221Y-29290D01*
X23621Y-29690D01*
X20710Y-29690D01*
X20710Y-18110D01*
X20710Y-16390D01*
X20310Y-16390D01*
X20310Y-12024D01*
X20310Y-11475D01*
X20024Y-11190D01*
X19475Y-11190D01*
X19190Y-11475D01*
X19190Y-12024D01*
X19475Y-12310D01*
X20024Y-12310D01*
X20310Y-12024D01*
X20310Y-16390D01*
X19790Y-16390D01*
X19790Y-18110D01*
X20710Y-18110D01*
X20710Y-29690D01*
X18560Y-29690D01*
X18560Y-15010D01*
X18560Y-13290D01*
X17640Y-13290D01*
X17640Y-15010D01*
X18560Y-15010D01*
X18560Y-29690D01*
X17810Y-29690D01*
X17810Y-21160D01*
X17810Y-19440D01*
X16890Y-19440D01*
X16890Y-20990D01*
X16810Y-20990D01*
X16810Y-17674D01*
X16810Y-17125D01*
X16524Y-16840D01*
X15975Y-16840D01*
X15690Y-17125D01*
X15690Y-17674D01*
X15975Y-17960D01*
X16524Y-17960D01*
X16810Y-17674D01*
X16810Y-20990D01*
X15990Y-20990D01*
X15990Y-22010D01*
X17060Y-22010D01*
X17060Y-21160D01*
X17810Y-21160D01*
X17810Y-29690D01*
X14440Y-29690D01*
X14440Y-14512D01*
X14373Y-14351D01*
X14249Y-14227D01*
X14087Y-14160D01*
X13912Y-14159D01*
X13751Y-14226D01*
X13627Y-14350D01*
X13560Y-14512D01*
X13559Y-14687D01*
X13626Y-14848D01*
X13750Y-14972D01*
X13912Y-15039D01*
X14087Y-15040D01*
X14248Y-14973D01*
X14372Y-14849D01*
X14439Y-14687D01*
X14440Y-14512D01*
X14440Y-29690D01*
X14310Y-29690D01*
X14310Y-18560D01*
X14310Y-16440D01*
X13440Y-16440D01*
X13440Y-14512D01*
X13373Y-14351D01*
X13249Y-14227D01*
X13199Y-14206D01*
X13248Y-14186D01*
X13372Y-14062D01*
X13439Y-13900D01*
X13440Y-13725D01*
X13373Y-13564D01*
X13249Y-13440D01*
X13087Y-13373D01*
X12912Y-13372D01*
X12751Y-13439D01*
X12627Y-13563D01*
X12560Y-13725D01*
X12559Y-13900D01*
X12626Y-14061D01*
X12750Y-14185D01*
X12800Y-14206D01*
X12751Y-14226D01*
X12627Y-14350D01*
X12560Y-14512D01*
X12559Y-14687D01*
X12626Y-14848D01*
X12750Y-14972D01*
X12912Y-15039D01*
X13087Y-15040D01*
X13248Y-14973D01*
X13372Y-14849D01*
X13439Y-14687D01*
X13440Y-14512D01*
X13440Y-16440D01*
X11190Y-16440D01*
X11190Y-18560D01*
X14310Y-18560D01*
X14310Y-29690D01*
X13565Y-29690D01*
X13565Y-22777D01*
X13509Y-22643D01*
X13407Y-22540D01*
X13272Y-22485D01*
X13127Y-22484D01*
X13073Y-22507D01*
X13058Y-22491D01*
X12939Y-22412D01*
X12800Y-22385D01*
X12600Y-22385D01*
X12460Y-22412D01*
X12341Y-22491D01*
X12262Y-22610D01*
X12235Y-22750D01*
X12262Y-22889D01*
X12341Y-23008D01*
X12460Y-23087D01*
X12600Y-23115D01*
X12635Y-23115D01*
X12635Y-23198D01*
X12548Y-23284D01*
X12477Y-23284D01*
X12410Y-23312D01*
X12410Y-23312D01*
X12410Y-23312D01*
X12343Y-23340D01*
X12291Y-23391D01*
X12291Y-23391D01*
X12291Y-23391D01*
X12240Y-23442D01*
X12212Y-23510D01*
X12212Y-23510D01*
X12212Y-23510D01*
X12185Y-23577D01*
X12185Y-23649D01*
X12185Y-23650D01*
X12185Y-23650D01*
X12184Y-23722D01*
X12212Y-23789D01*
X12212Y-23789D01*
X12212Y-23789D01*
X12240Y-23856D01*
X12291Y-23908D01*
X12291Y-23908D01*
X12291Y-23908D01*
X12342Y-23959D01*
X12410Y-23987D01*
X12410Y-23987D01*
X12410Y-23987D01*
X12477Y-24014D01*
X12549Y-24014D01*
X12550Y-24015D01*
X12550Y-24015D01*
X12622Y-24015D01*
X12622Y-24015D01*
X12700Y-24015D01*
X12839Y-23987D01*
X12958Y-23908D01*
X12987Y-23878D01*
X13086Y-23919D01*
X13213Y-23920D01*
X13331Y-23871D01*
X13421Y-23781D01*
X13469Y-23663D01*
X13470Y-23536D01*
X13421Y-23418D01*
X13400Y-23397D01*
X13400Y-23162D01*
X13406Y-23159D01*
X13509Y-23057D01*
X13564Y-22922D01*
X13565Y-22777D01*
X13565Y-29690D01*
X12340Y-29690D01*
X12340Y-26383D01*
X12250Y-26166D01*
X12084Y-26000D01*
X11867Y-25910D01*
X11633Y-25909D01*
X11416Y-25999D01*
X11250Y-26165D01*
X11160Y-26382D01*
X11159Y-26616D01*
X11249Y-26833D01*
X11415Y-26999D01*
X11632Y-27089D01*
X11866Y-27090D01*
X12083Y-27000D01*
X12249Y-26834D01*
X12339Y-26617D01*
X12340Y-26383D01*
X12340Y-29690D01*
X10310Y-29690D01*
X10310Y-10310D01*
X47690Y-10310D01*
X47690Y-29690D01*
M02*
