M48
;DRILL file {Pcbnew (2013-07-07 BZR 4022)-stable} date 3/2/2015 1:41:44 AM
;FORMAT={2:4/ absolute / inch / suppress leading zeros}
FMAT,2
INCH,TZ
T1C0.020
T2C0.025
T3C0.032
T4C0.040
T5C0.050
T6C0.062
T7C0.071
T8C0.091
T9C0.136
T10C0.150
%
G90
G05
M72
T1
X10450Y-29550
X10750Y-15750
X10800Y-16900
X10800Y-18050
X12100Y-23300
X12400Y-15750
X12450Y-22200
X12600Y-22750
X13150Y-23600
X13200Y-29550
X13500Y-28600
X13600Y-26000
X13600Y-27500
X13750Y-22250
X14100Y-27050
X14150Y-25950
X14200Y-15750
X14500Y-18850
X14750Y-26000
X14750Y-27000
X15350Y-25950
X15350Y-27050
X16200Y-28200
X16650Y-25950
X16650Y-27050
X16900Y-14300
X17050Y-24400
X17100Y-18700
X17350Y-21500
X17600Y-15350
X17950Y-26000
X17950Y-27000
X18100Y-19650
X18650Y-19100
X18950Y-24100
X19250Y-12350
X19275Y-14825
X19650Y-27500
X19750Y-12550
X19750Y-28350
X19900Y-25450
X20050Y-18400
X20200Y-27500
X20250Y-12350
X20400Y-25000
X20500Y-11850
X20500Y-28350
X20750Y-25500
X20750Y-26500
X20750Y-27500
X20910Y-15680
X20975Y-24875
X21000Y-11550
X21000Y-20000
X21000Y-23750
X21100Y-28550
X21300Y-27500
X21450Y-22400
X21450Y-23000
X21450Y-26500
X21500Y-21850
X21500Y-23700
X21500Y-24800
X21500Y-25500
X21550Y-16450
X21850Y-27500
X21900Y-29150
X22000Y-26400
X22350Y-26050
X22400Y-27500
X22500Y-19675
X22500Y-23850
X22500Y-24450
X22500Y-25000
X22500Y-25550
X22650Y-26500
X22750Y-12600
X22950Y-27500
X23050Y-19600
X23100Y-22150
X23100Y-23850
X23200Y-26500
X23250Y-12750
X23250Y-28300
X23250Y-29500
X23550Y-21850
X23550Y-22450
X23550Y-23000
X23550Y-23550
X23600Y-27500
X23750Y-12550
X23750Y-26500
X23950Y-11050
X24300Y-26500
X24750Y-13300
X24750Y-15100
X24750Y-24300
X24950Y-26500
X25000Y-17250
X25550Y-12000
X25550Y-27500
X25600Y-21050
X25600Y-26500
X25725Y-20050
X25850Y-28575
X25900Y-25650
X25900Y-27900
X25900Y-29500
X26000Y-12850
X26050Y-13300
X26050Y-15050
X26200Y-20950
X26250Y-20000
X26250Y-27500
X26400Y-22850
X26400Y-23950
X26500Y-12000
X26500Y-21400
X26500Y-22050
X26550Y-14850
X26550Y-25600
X26600Y-12850
X26600Y-27900
X26800Y-20500
X26900Y-13300
X26900Y-26500
X26950Y-27500
X27000Y-21050
X27000Y-28350
X27200Y-12850
X27200Y-26050
X27300Y-27900
X27350Y-16425
X27650Y-27500
X27700Y-13250
X27700Y-29000
X27960Y-16410
X28000Y-20600
X28000Y-23100
X28000Y-23650
X28000Y-24200
X28000Y-24750
X28000Y-27900
X28050Y-17450
X28350Y-27500
X28500Y-21400
X28500Y-22050
X28650Y-29150
X28700Y-27900
X28750Y-24750
X28900Y-12350
X29050Y-27500
X29350Y-21300
X29400Y-27900
X29450Y-23250
X29500Y-16550
X29500Y-24750
X29750Y-22700
X29750Y-27500
X30100Y-12350
X30100Y-27900
X30200Y-21100
X30250Y-24750
X30400Y-19500
X30450Y-20450
X30500Y-17375
X30500Y-27500
X30900Y-27900
X30950Y-21550
X30950Y-22300
X31000Y-22900
X31000Y-23550
X31000Y-24150
X31000Y-24750
X31200Y-26500
X31300Y-27500
X31350Y-18000
X31450Y-13550
X31550Y-26000
X31700Y-15250
X31850Y-13150
X31850Y-17300
X31850Y-26500
X31850Y-27850
X32000Y-19500
X32000Y-22950
X32050Y-20150
X32050Y-21500
X32050Y-22250
X32100Y-20750
X32200Y-16750
X32250Y-12800
X32250Y-15750
X32250Y-25900
X32350Y-11150
X32350Y-27500
X32400Y-18500
X32500Y-20400
X32550Y-26500
X32600Y-22400
X32600Y-23000
X32600Y-23500
X32600Y-24000
X32600Y-24500
X32700Y-13250
X32750Y-16750
X32750Y-25400
X32800Y-27900
X32900Y-20100
X33050Y-17200
X33100Y-18500
X33100Y-20600
X33150Y-25850
X33200Y-11250
X33250Y-13250
X33250Y-26500
X33250Y-27500
X33300Y-16750
X33400Y-20100
X33500Y-15200
X33600Y-22350
X33750Y-11250
X33800Y-13250
X33800Y-27800
X33850Y-16750
X33850Y-18500
X34000Y-12750
X34000Y-26500
X34050Y-11750
X34050Y-19500
X34250Y-22750
X34300Y-27500
X34400Y-16750
X34450Y-11150
X34600Y-15750
X34700Y-12750
X34750Y-18500
X34750Y-26500
X34950Y-16800
X35050Y-11150
X35050Y-15400
X35200Y-27500
X35300Y-12750
X35300Y-17200
X35350Y-11700
X35400Y-13850
X35500Y-15750
X35500Y-16750
X35500Y-18500
X35500Y-19500
X35650Y-11250
X35725Y-27500
X35750Y-26500
X35850Y-15350
X36000Y-11700
X36000Y-12800
X36000Y-20000
X36000Y-22500
X36000Y-23250
X36000Y-24100
X36000Y-24900
X36000Y-25750
X36050Y-16800
X36250Y-15700
X36250Y-18500
X36250Y-19500
X36250Y-27500
X36350Y-11250
X36550Y-17350
X36650Y-11700
X36650Y-16800
X36750Y-12750
X36950Y-11150
X36950Y-18500
X37000Y-13250
X37000Y-13750
X37000Y-14250
X37000Y-19500
X37000Y-20500
X37000Y-21300
X37000Y-21900
X37000Y-22500
X37000Y-23450
X37000Y-24350
X37000Y-25200
X37000Y-26100
X37000Y-26650
X37200Y-16800
X37350Y-20900
X37400Y-17900
X37550Y-11150
X37750Y-14125
X37750Y-20500
X37800Y-19500
X37950Y-27000
X38100Y-20900
X38300Y-17300
X38400Y-19500
X38450Y-20500
X38650Y-17900
X38700Y-26750
X38850Y-17000
X39000Y-19500
X39050Y-18500
X39050Y-20500
X39300Y-21000
X39550Y-14700
X39750Y-17900
X39750Y-18500
X39750Y-20500
X39800Y-14100
X40125Y-15500
X40325Y-11800
X40500Y-20500
X41000Y-18250
X41200Y-13850
X41200Y-14350
X41300Y-22950
X41350Y-16100
X41350Y-27775
X41550Y-24250
X41650Y-20850
X41750Y-12300
X41750Y-13700
X41900Y-14300
X41950Y-10550
X41950Y-23250
X42100Y-16400
X42350Y-22150
X42550Y-10550
X42750Y-13450
X43000Y-18900
X43000Y-20100
X43150Y-12400
X43150Y-25050
X43150Y-26300
X43150Y-28450
X43350Y-13450
X43500Y-14500
X43500Y-27650
X43600Y-15050
X43700Y-21850
X43950Y-10550
X44000Y-12750
X44000Y-13500
X44050Y-20700
X44100Y-18300
X44250Y-14400
X44250Y-15700
X44250Y-22400
X44550Y-10550
X44600Y-17950
X45350Y-15650
X45350Y-27000
X47500Y-29500
T2
X11550Y-28000
X12550Y-23650
X13200Y-22850
X13500Y-11900
X13650Y-20700
X13750Y-25350
X14300Y-28550
X14800Y-13850
X14950Y-14550
X15100Y-28850
X15550Y-27950
X15950Y-28900
X16050Y-27050
X16250Y-25100
X16800Y-28850
X17000Y-23700
X17150Y-25000
X17200Y-28000
X17250Y-25950
X17250Y-27050
X17600Y-28650
X18200Y-23100
X18350Y-22300
X18500Y-16900
X18850Y-22800
X18950Y-17300
X18950Y-17900
X18950Y-18500
X19450Y-24700
X19840Y-14850
X19850Y-24100
X19900Y-15450
X19900Y-26500
X20450Y-14850
X20850Y-18650
X20850Y-19350
X20850Y-24300
X20900Y-14300
X21400Y-20500
X21450Y-18400
X21450Y-19600
X21450Y-21250
X21650Y-28500
X21750Y-17750
X21950Y-17100
X22500Y-29100
X22550Y-17450
X22600Y-18550
X22600Y-19150
X23000Y-17000
X23050Y-25900
X23150Y-16200
X23150Y-21400
X23350Y-25300
X23500Y-17400
X23600Y-20500
X23650Y-19600
X23750Y-16200
X23950Y-16950
X24150Y-19950
X24300Y-17500
X24350Y-16200
X24400Y-18450
X24450Y-15616
X24800Y-17900
X24900Y-20100
X25400Y-13200
X25400Y-15200
X25450Y-18450
X25450Y-19550
X26250Y-18000
X26250Y-26450
X26350Y-23400
X26350Y-24500
X26450Y-28500
X26800Y-19900
X26950Y-22500
X26950Y-24850
X27000Y-18000
X27100Y-28950
X27300Y-25500
X27600Y-26450
X28000Y-25800
X28050Y-22500
X28350Y-26450
X28750Y-17500
X28750Y-18250
X28750Y-19000
X28750Y-19750
X28750Y-20500
X28750Y-25800
X28900Y-16000
X29100Y-26450
X29450Y-17300
X29500Y-12350
X29500Y-25800
X29750Y-16000
X29750Y-20600
X29850Y-26450
X30250Y-25800
X30500Y-23200
X30550Y-16800
X30600Y-15700
X30600Y-26450
X30650Y-17950
X30650Y-18600
X30900Y-20050
X30900Y-20850
X30950Y-19400
X31000Y-12850
X31000Y-25800
X31100Y-15200
X31200Y-17300
X31250Y-18800
X31600Y-14300
X31800Y-18450
X31800Y-25450
X32050Y-24850
X32950Y-15050
X34050Y-15050
X34050Y-25750
X34100Y-23750
X36750Y-27200
X36750Y-28600
X37000Y-14750
X37700Y-12800
X37700Y-15650
X37850Y-16800
X38000Y-11500
X38000Y-18000
X38500Y-12000
X38500Y-16500
X38800Y-12650
X38800Y-13500
X38800Y-14250
X38800Y-15000
X38800Y-15750
X39250Y-17500
X40125Y-16300
X40500Y-18000
X40600Y-19500
X40600Y-21400
X40600Y-22200
X41200Y-21250
X41200Y-22350
X41500Y-18000
X41800Y-21400
X41800Y-22200
X43550Y-18000
X43550Y-18650
X43550Y-20350
X43550Y-21000
X45750Y-24250
X46000Y-17750
X46500Y-23450
X46750Y-17750
X47500Y-17750
T3
X11750Y-17000
X11750Y-18000
X12750Y-17000
X12750Y-18000
X13000Y-13813
X13000Y-14600
X13750Y-17000
X13750Y-18000
X14000Y-13813
X14000Y-14600
X16450Y-23050
X17350Y-11800
X17350Y-19906
X17350Y-20694
X18100Y-13756
X18100Y-14544
X20250Y-16856
X20250Y-17644
X21500Y-12500
X24100Y-23950
X25300Y-21800
X28000Y-11606
X28000Y-12394
X28150Y-14900
X28750Y-23050
X29200Y-22050
X33150Y-14200
X33550Y-25200
X34200Y-24600
X34500Y-13650
X38100Y-22200
X40450Y-26006
X40450Y-26794
X45100Y-14750
X45463Y-22500
X46250Y-22500
X46356Y-16000
X47037Y-22500
X47144Y-16000
X47300Y-14750
T4
X13325Y-21500
X15250Y-17400
X16250Y-17400
X16525Y-21500
X39000Y-11000
X40000Y-11000
T5
X19750Y-11750
X24750Y-11750
T6
X10750Y-25500
X10750Y-27500
X11750Y-26500
X12750Y-25500
X12750Y-27500
X45250Y-11500
X45250Y-13500
X45250Y-18500
X45250Y-20500
X46250Y-12500
X46250Y-19500
X47250Y-11500
X47250Y-13500
X47250Y-18500
X47250Y-20500
T7
X42250Y-25150
X42250Y-27000
X42250Y-28850
X47250Y-26016
X47250Y-27984
T8
X11138Y-12750
X15862Y-12750
T9
X19750Y-21089
X24565Y-28435
X29565Y-14065
X34711Y-21089
T10
X12000Y-20500
X15000Y-24000
X39000Y-28500
X40000Y-24000
T0
M30
